G04 #@! TF.GenerationSoftware,KiCad,Pcbnew,(5.1.10-1-10_14)*
G04 #@! TF.CreationDate,2021-08-28T19:37:01+10:00*
G04 #@! TF.ProjectId,esp32_smart_keezer,65737033-325f-4736-9d61-72745f6b6565,1*
G04 #@! TF.SameCoordinates,Original*
G04 #@! TF.FileFunction,Soldermask,Top*
G04 #@! TF.FilePolarity,Negative*
%FSLAX46Y46*%
G04 Gerber Fmt 4.6, Leading zero omitted, Abs format (unit mm)*
G04 Created by KiCad (PCBNEW (5.1.10-1-10_14)) date 2021-08-28 19:37:01*
%MOMM*%
%LPD*%
G01*
G04 APERTURE LIST*
%ADD10O,1.900000X1.070000*%
%ADD11R,1.350000X0.600000*%
%ADD12C,1.300000*%
%ADD13R,1.250000X0.400000*%
%ADD14C,0.800000*%
%ADD15C,6.400000*%
%ADD16R,5.000000X5.000000*%
%ADD17R,2.000000X0.900000*%
%ADD18R,0.900000X2.000000*%
%ADD19R,1.400000X1.000000*%
%ADD20R,2.510000X1.000000*%
%ADD21R,0.650000X1.060000*%
%ADD22R,0.980000X3.400000*%
%ADD23R,2.500000X1.800000*%
%ADD24O,4.000000X1.800000*%
%ADD25O,1.800000X4.000000*%
%ADD26R,1.800000X4.400000*%
G04 APERTURE END LIST*
D10*
X174050000Y-84800000D03*
X173950000Y-92000000D03*
D11*
X173950000Y-87650000D03*
X173950000Y-89150000D03*
D12*
X171050000Y-86000000D03*
X171050000Y-90800000D03*
D13*
X171050000Y-87100000D03*
X171050000Y-87750000D03*
X171050000Y-88400000D03*
X171050000Y-89050000D03*
X171050000Y-89700000D03*
D14*
X112847056Y-129152944D03*
X111150000Y-128450000D03*
X109452944Y-129152944D03*
X108750000Y-130850000D03*
X109452944Y-132547056D03*
X111150000Y-133250000D03*
X112847056Y-132547056D03*
X113550000Y-130850000D03*
D15*
X111150000Y-130850000D03*
D14*
X173647056Y-76852944D03*
X171950000Y-76150000D03*
X170252944Y-76852944D03*
X169550000Y-78550000D03*
X170252944Y-80247056D03*
X171950000Y-80950000D03*
X173647056Y-80247056D03*
X174350000Y-78550000D03*
D15*
X171950000Y-78550000D03*
X171950000Y-130850000D03*
D14*
X174350000Y-130850000D03*
X173647056Y-132547056D03*
X171950000Y-133250000D03*
X170252944Y-132547056D03*
X169550000Y-130850000D03*
X170252944Y-129152944D03*
X171950000Y-128450000D03*
X173647056Y-129152944D03*
X112847056Y-76952944D03*
X111150000Y-76250000D03*
X109452944Y-76952944D03*
X108750000Y-78650000D03*
X109452944Y-80347056D03*
X111150000Y-81050000D03*
X112847056Y-80347056D03*
X113550000Y-78650000D03*
D15*
X111150000Y-78650000D03*
G36*
G01*
X130400000Y-86225000D02*
X130900000Y-86225000D01*
G75*
G02*
X131125000Y-86450000I0J-225000D01*
G01*
X131125000Y-86900000D01*
G75*
G02*
X130900000Y-87125000I-225000J0D01*
G01*
X130400000Y-87125000D01*
G75*
G02*
X130175000Y-86900000I0J225000D01*
G01*
X130175000Y-86450000D01*
G75*
G02*
X130400000Y-86225000I225000J0D01*
G01*
G37*
G36*
G01*
X130400000Y-84675000D02*
X130900000Y-84675000D01*
G75*
G02*
X131125000Y-84900000I0J-225000D01*
G01*
X131125000Y-85350000D01*
G75*
G02*
X130900000Y-85575000I-225000J0D01*
G01*
X130400000Y-85575000D01*
G75*
G02*
X130175000Y-85350000I0J225000D01*
G01*
X130175000Y-84900000D01*
G75*
G02*
X130400000Y-84675000I225000J0D01*
G01*
G37*
G36*
G01*
X162150000Y-91425000D02*
X162650000Y-91425000D01*
G75*
G02*
X162875000Y-91650000I0J-225000D01*
G01*
X162875000Y-92100000D01*
G75*
G02*
X162650000Y-92325000I-225000J0D01*
G01*
X162150000Y-92325000D01*
G75*
G02*
X161925000Y-92100000I0J225000D01*
G01*
X161925000Y-91650000D01*
G75*
G02*
X162150000Y-91425000I225000J0D01*
G01*
G37*
G36*
G01*
X162150000Y-92975000D02*
X162650000Y-92975000D01*
G75*
G02*
X162875000Y-93200000I0J-225000D01*
G01*
X162875000Y-93650000D01*
G75*
G02*
X162650000Y-93875000I-225000J0D01*
G01*
X162150000Y-93875000D01*
G75*
G02*
X161925000Y-93650000I0J225000D01*
G01*
X161925000Y-93200000D01*
G75*
G02*
X162150000Y-92975000I225000J0D01*
G01*
G37*
G36*
G01*
X163475000Y-84900000D02*
X163475000Y-84400000D01*
G75*
G02*
X163700000Y-84175000I225000J0D01*
G01*
X164150000Y-84175000D01*
G75*
G02*
X164375000Y-84400000I0J-225000D01*
G01*
X164375000Y-84900000D01*
G75*
G02*
X164150000Y-85125000I-225000J0D01*
G01*
X163700000Y-85125000D01*
G75*
G02*
X163475000Y-84900000I0J225000D01*
G01*
G37*
G36*
G01*
X161925000Y-84900000D02*
X161925000Y-84400000D01*
G75*
G02*
X162150000Y-84175000I225000J0D01*
G01*
X162600000Y-84175000D01*
G75*
G02*
X162825000Y-84400000I0J-225000D01*
G01*
X162825000Y-84900000D01*
G75*
G02*
X162600000Y-85125000I-225000J0D01*
G01*
X162150000Y-85125000D01*
G75*
G02*
X161925000Y-84900000I0J225000D01*
G01*
G37*
G36*
G01*
X125224997Y-82700000D02*
X127075003Y-82700000D01*
G75*
G02*
X127325000Y-82949997I0J-249997D01*
G01*
X127325000Y-83775003D01*
G75*
G02*
X127075003Y-84025000I-249997J0D01*
G01*
X125224997Y-84025000D01*
G75*
G02*
X124975000Y-83775003I0J249997D01*
G01*
X124975000Y-82949997D01*
G75*
G02*
X125224997Y-82700000I249997J0D01*
G01*
G37*
G36*
G01*
X125224997Y-85775000D02*
X127075003Y-85775000D01*
G75*
G02*
X127325000Y-86024997I0J-249997D01*
G01*
X127325000Y-86850003D01*
G75*
G02*
X127075003Y-87100000I-249997J0D01*
G01*
X125224997Y-87100000D01*
G75*
G02*
X124975000Y-86850003I0J249997D01*
G01*
X124975000Y-86024997D01*
G75*
G02*
X125224997Y-85775000I249997J0D01*
G01*
G37*
G36*
G01*
X130900000Y-83875000D02*
X130400000Y-83875000D01*
G75*
G02*
X130175000Y-83650000I0J225000D01*
G01*
X130175000Y-83200000D01*
G75*
G02*
X130400000Y-82975000I225000J0D01*
G01*
X130900000Y-82975000D01*
G75*
G02*
X131125000Y-83200000I0J-225000D01*
G01*
X131125000Y-83650000D01*
G75*
G02*
X130900000Y-83875000I-225000J0D01*
G01*
G37*
G36*
G01*
X130900000Y-82325000D02*
X130400000Y-82325000D01*
G75*
G02*
X130175000Y-82100000I0J225000D01*
G01*
X130175000Y-81650000D01*
G75*
G02*
X130400000Y-81425000I225000J0D01*
G01*
X130900000Y-81425000D01*
G75*
G02*
X131125000Y-81650000I0J-225000D01*
G01*
X131125000Y-82100000D01*
G75*
G02*
X130900000Y-82325000I-225000J0D01*
G01*
G37*
G36*
G01*
X160456250Y-79625000D02*
X159943750Y-79625000D01*
G75*
G02*
X159725000Y-79406250I0J218750D01*
G01*
X159725000Y-78968750D01*
G75*
G02*
X159943750Y-78750000I218750J0D01*
G01*
X160456250Y-78750000D01*
G75*
G02*
X160675000Y-78968750I0J-218750D01*
G01*
X160675000Y-79406250D01*
G75*
G02*
X160456250Y-79625000I-218750J0D01*
G01*
G37*
G36*
G01*
X160456250Y-78050000D02*
X159943750Y-78050000D01*
G75*
G02*
X159725000Y-77831250I0J218750D01*
G01*
X159725000Y-77393750D01*
G75*
G02*
X159943750Y-77175000I218750J0D01*
G01*
X160456250Y-77175000D01*
G75*
G02*
X160675000Y-77393750I0J-218750D01*
G01*
X160675000Y-77831250D01*
G75*
G02*
X160456250Y-78050000I-218750J0D01*
G01*
G37*
G36*
G01*
X165006250Y-79725000D02*
X164493750Y-79725000D01*
G75*
G02*
X164275000Y-79506250I0J218750D01*
G01*
X164275000Y-79068750D01*
G75*
G02*
X164493750Y-78850000I218750J0D01*
G01*
X165006250Y-78850000D01*
G75*
G02*
X165225000Y-79068750I0J-218750D01*
G01*
X165225000Y-79506250D01*
G75*
G02*
X165006250Y-79725000I-218750J0D01*
G01*
G37*
G36*
G01*
X165006250Y-78150000D02*
X164493750Y-78150000D01*
G75*
G02*
X164275000Y-77931250I0J218750D01*
G01*
X164275000Y-77493750D01*
G75*
G02*
X164493750Y-77275000I218750J0D01*
G01*
X165006250Y-77275000D01*
G75*
G02*
X165225000Y-77493750I0J-218750D01*
G01*
X165225000Y-77931250D01*
G75*
G02*
X165006250Y-78150000I-218750J0D01*
G01*
G37*
G36*
G01*
X128625000Y-84825000D02*
X129175000Y-84825000D01*
G75*
G02*
X129375000Y-85025000I0J-200000D01*
G01*
X129375000Y-85425000D01*
G75*
G02*
X129175000Y-85625000I-200000J0D01*
G01*
X128625000Y-85625000D01*
G75*
G02*
X128425000Y-85425000I0J200000D01*
G01*
X128425000Y-85025000D01*
G75*
G02*
X128625000Y-84825000I200000J0D01*
G01*
G37*
G36*
G01*
X128625000Y-83175000D02*
X129175000Y-83175000D01*
G75*
G02*
X129375000Y-83375000I0J-200000D01*
G01*
X129375000Y-83775000D01*
G75*
G02*
X129175000Y-83975000I-200000J0D01*
G01*
X128625000Y-83975000D01*
G75*
G02*
X128425000Y-83775000I0J200000D01*
G01*
X128425000Y-83375000D01*
G75*
G02*
X128625000Y-83175000I200000J0D01*
G01*
G37*
G36*
G01*
X159925000Y-82175000D02*
X160475000Y-82175000D01*
G75*
G02*
X160675000Y-82375000I0J-200000D01*
G01*
X160675000Y-82775000D01*
G75*
G02*
X160475000Y-82975000I-200000J0D01*
G01*
X159925000Y-82975000D01*
G75*
G02*
X159725000Y-82775000I0J200000D01*
G01*
X159725000Y-82375000D01*
G75*
G02*
X159925000Y-82175000I200000J0D01*
G01*
G37*
G36*
G01*
X159925000Y-80525000D02*
X160475000Y-80525000D01*
G75*
G02*
X160675000Y-80725000I0J-200000D01*
G01*
X160675000Y-81125000D01*
G75*
G02*
X160475000Y-81325000I-200000J0D01*
G01*
X159925000Y-81325000D01*
G75*
G02*
X159725000Y-81125000I0J200000D01*
G01*
X159725000Y-80725000D01*
G75*
G02*
X159925000Y-80525000I200000J0D01*
G01*
G37*
G36*
G01*
X164475000Y-80625000D02*
X165025000Y-80625000D01*
G75*
G02*
X165225000Y-80825000I0J-200000D01*
G01*
X165225000Y-81225000D01*
G75*
G02*
X165025000Y-81425000I-200000J0D01*
G01*
X164475000Y-81425000D01*
G75*
G02*
X164275000Y-81225000I0J200000D01*
G01*
X164275000Y-80825000D01*
G75*
G02*
X164475000Y-80625000I200000J0D01*
G01*
G37*
G36*
G01*
X164475000Y-82275000D02*
X165025000Y-82275000D01*
G75*
G02*
X165225000Y-82475000I0J-200000D01*
G01*
X165225000Y-82875000D01*
G75*
G02*
X165025000Y-83075000I-200000J0D01*
G01*
X164475000Y-83075000D01*
G75*
G02*
X164275000Y-82875000I0J200000D01*
G01*
X164275000Y-82475000D01*
G75*
G02*
X164475000Y-82275000I200000J0D01*
G01*
G37*
G36*
G01*
X130325000Y-98925000D02*
X130325000Y-98375000D01*
G75*
G02*
X130525000Y-98175000I200000J0D01*
G01*
X130925000Y-98175000D01*
G75*
G02*
X131125000Y-98375000I0J-200000D01*
G01*
X131125000Y-98925000D01*
G75*
G02*
X130925000Y-99125000I-200000J0D01*
G01*
X130525000Y-99125000D01*
G75*
G02*
X130325000Y-98925000I0J200000D01*
G01*
G37*
G36*
G01*
X128675000Y-98925000D02*
X128675000Y-98375000D01*
G75*
G02*
X128875000Y-98175000I200000J0D01*
G01*
X129275000Y-98175000D01*
G75*
G02*
X129475000Y-98375000I0J-200000D01*
G01*
X129475000Y-98925000D01*
G75*
G02*
X129275000Y-99125000I-200000J0D01*
G01*
X128875000Y-99125000D01*
G75*
G02*
X128675000Y-98925000I0J200000D01*
G01*
G37*
G36*
G01*
X155600000Y-98375000D02*
X155600000Y-98925000D01*
G75*
G02*
X155400000Y-99125000I-200000J0D01*
G01*
X155000000Y-99125000D01*
G75*
G02*
X154800000Y-98925000I0J200000D01*
G01*
X154800000Y-98375000D01*
G75*
G02*
X155000000Y-98175000I200000J0D01*
G01*
X155400000Y-98175000D01*
G75*
G02*
X155600000Y-98375000I0J-200000D01*
G01*
G37*
G36*
G01*
X153950000Y-98375000D02*
X153950000Y-98925000D01*
G75*
G02*
X153750000Y-99125000I-200000J0D01*
G01*
X153350000Y-99125000D01*
G75*
G02*
X153150000Y-98925000I0J200000D01*
G01*
X153150000Y-98375000D01*
G75*
G02*
X153350000Y-98175000I200000J0D01*
G01*
X153750000Y-98175000D01*
G75*
G02*
X153950000Y-98375000I0J-200000D01*
G01*
G37*
D16*
X140625000Y-89720000D03*
D17*
X133125000Y-82220000D03*
X133125000Y-83490000D03*
X133125000Y-84760000D03*
X133125000Y-86030000D03*
X133125000Y-87300000D03*
X133125000Y-88570000D03*
X133125000Y-89840000D03*
X133125000Y-91110000D03*
X133125000Y-92380000D03*
X133125000Y-93650000D03*
X133125000Y-94920000D03*
X133125000Y-96190000D03*
X133125000Y-97460000D03*
X133125000Y-98730000D03*
D18*
X135910000Y-99730000D03*
X137180000Y-99730000D03*
X138450000Y-99730000D03*
X139720000Y-99730000D03*
X140990000Y-99730000D03*
X142260000Y-99730000D03*
X143530000Y-99730000D03*
X144800000Y-99730000D03*
X146070000Y-99730000D03*
X147340000Y-99730000D03*
D17*
X150125000Y-98730000D03*
X150125000Y-97460000D03*
X150125000Y-96190000D03*
X150125000Y-94920000D03*
X150125000Y-93650000D03*
X150125000Y-92380000D03*
X150125000Y-91110000D03*
X150125000Y-89840000D03*
X150125000Y-88570000D03*
X150125000Y-87300000D03*
X150125000Y-86030000D03*
X150125000Y-84760000D03*
X150125000Y-83490000D03*
X150125000Y-82220000D03*
G36*
G01*
X118825000Y-93275000D02*
X118275000Y-93275000D01*
G75*
G02*
X118075000Y-93075000I0J200000D01*
G01*
X118075000Y-92675000D01*
G75*
G02*
X118275000Y-92475000I200000J0D01*
G01*
X118825000Y-92475000D01*
G75*
G02*
X119025000Y-92675000I0J-200000D01*
G01*
X119025000Y-93075000D01*
G75*
G02*
X118825000Y-93275000I-200000J0D01*
G01*
G37*
G36*
G01*
X118825000Y-91625000D02*
X118275000Y-91625000D01*
G75*
G02*
X118075000Y-91425000I0J200000D01*
G01*
X118075000Y-91025000D01*
G75*
G02*
X118275000Y-90825000I200000J0D01*
G01*
X118825000Y-90825000D01*
G75*
G02*
X119025000Y-91025000I0J-200000D01*
G01*
X119025000Y-91425000D01*
G75*
G02*
X118825000Y-91625000I-200000J0D01*
G01*
G37*
D19*
X116650000Y-92850000D03*
X110350000Y-92850000D03*
X110350000Y-95850000D03*
X116650000Y-95850000D03*
X158950000Y-96250000D03*
X152650000Y-96250000D03*
X152650000Y-93250000D03*
X158950000Y-93250000D03*
X126800000Y-92850000D03*
X120500000Y-92850000D03*
X120500000Y-95850000D03*
X126800000Y-95850000D03*
G36*
G01*
X168350000Y-89905000D02*
X168350000Y-90205000D01*
G75*
G02*
X168200000Y-90355000I-150000J0D01*
G01*
X166550000Y-90355000D01*
G75*
G02*
X166400000Y-90205000I0J150000D01*
G01*
X166400000Y-89905000D01*
G75*
G02*
X166550000Y-89755000I150000J0D01*
G01*
X168200000Y-89755000D01*
G75*
G02*
X168350000Y-89905000I0J-150000D01*
G01*
G37*
G36*
G01*
X168350000Y-88635000D02*
X168350000Y-88935000D01*
G75*
G02*
X168200000Y-89085000I-150000J0D01*
G01*
X166550000Y-89085000D01*
G75*
G02*
X166400000Y-88935000I0J150000D01*
G01*
X166400000Y-88635000D01*
G75*
G02*
X166550000Y-88485000I150000J0D01*
G01*
X168200000Y-88485000D01*
G75*
G02*
X168350000Y-88635000I0J-150000D01*
G01*
G37*
G36*
G01*
X168350000Y-87365000D02*
X168350000Y-87665000D01*
G75*
G02*
X168200000Y-87815000I-150000J0D01*
G01*
X166550000Y-87815000D01*
G75*
G02*
X166400000Y-87665000I0J150000D01*
G01*
X166400000Y-87365000D01*
G75*
G02*
X166550000Y-87215000I150000J0D01*
G01*
X168200000Y-87215000D01*
G75*
G02*
X168350000Y-87365000I0J-150000D01*
G01*
G37*
G36*
G01*
X168350000Y-86095000D02*
X168350000Y-86395000D01*
G75*
G02*
X168200000Y-86545000I-150000J0D01*
G01*
X166550000Y-86545000D01*
G75*
G02*
X166400000Y-86395000I0J150000D01*
G01*
X166400000Y-86095000D01*
G75*
G02*
X166550000Y-85945000I150000J0D01*
G01*
X168200000Y-85945000D01*
G75*
G02*
X168350000Y-86095000I0J-150000D01*
G01*
G37*
G36*
G01*
X163400000Y-86095000D02*
X163400000Y-86395000D01*
G75*
G02*
X163250000Y-86545000I-150000J0D01*
G01*
X161600000Y-86545000D01*
G75*
G02*
X161450000Y-86395000I0J150000D01*
G01*
X161450000Y-86095000D01*
G75*
G02*
X161600000Y-85945000I150000J0D01*
G01*
X163250000Y-85945000D01*
G75*
G02*
X163400000Y-86095000I0J-150000D01*
G01*
G37*
G36*
G01*
X163400000Y-87365000D02*
X163400000Y-87665000D01*
G75*
G02*
X163250000Y-87815000I-150000J0D01*
G01*
X161600000Y-87815000D01*
G75*
G02*
X161450000Y-87665000I0J150000D01*
G01*
X161450000Y-87365000D01*
G75*
G02*
X161600000Y-87215000I150000J0D01*
G01*
X163250000Y-87215000D01*
G75*
G02*
X163400000Y-87365000I0J-150000D01*
G01*
G37*
G36*
G01*
X163400000Y-88635000D02*
X163400000Y-88935000D01*
G75*
G02*
X163250000Y-89085000I-150000J0D01*
G01*
X161600000Y-89085000D01*
G75*
G02*
X161450000Y-88935000I0J150000D01*
G01*
X161450000Y-88635000D01*
G75*
G02*
X161600000Y-88485000I150000J0D01*
G01*
X163250000Y-88485000D01*
G75*
G02*
X163400000Y-88635000I0J-150000D01*
G01*
G37*
G36*
G01*
X163400000Y-89905000D02*
X163400000Y-90205000D01*
G75*
G02*
X163250000Y-90355000I-150000J0D01*
G01*
X161600000Y-90355000D01*
G75*
G02*
X161450000Y-90205000I0J150000D01*
G01*
X161450000Y-89905000D01*
G75*
G02*
X161600000Y-89755000I150000J0D01*
G01*
X163250000Y-89755000D01*
G75*
G02*
X163400000Y-89905000I0J-150000D01*
G01*
G37*
D20*
X118495000Y-109110000D03*
X118495000Y-114190000D03*
X121805000Y-111650000D03*
X131805000Y-111650000D03*
X128495000Y-114190000D03*
X128495000Y-109110000D03*
X138495000Y-109110000D03*
X138495000Y-114190000D03*
X141805000Y-111650000D03*
X151805000Y-111650000D03*
X148495000Y-114190000D03*
X148495000Y-109110000D03*
X158495000Y-109110000D03*
X158495000Y-114190000D03*
X161805000Y-111650000D03*
X118495000Y-121660000D03*
X118495000Y-126740000D03*
X121805000Y-124200000D03*
X131805000Y-124200000D03*
X128495000Y-126740000D03*
X128495000Y-121660000D03*
X138495000Y-121660000D03*
X138495000Y-126740000D03*
X141805000Y-124200000D03*
X151805000Y-124200000D03*
X148495000Y-126740000D03*
X148495000Y-121660000D03*
X161805000Y-124200000D03*
X158495000Y-126740000D03*
X158495000Y-121660000D03*
G36*
G01*
X165900000Y-98575000D02*
X165900000Y-97625000D01*
G75*
G02*
X166150000Y-97375000I250000J0D01*
G01*
X166650000Y-97375000D01*
G75*
G02*
X166900000Y-97625000I0J-250000D01*
G01*
X166900000Y-98575000D01*
G75*
G02*
X166650000Y-98825000I-250000J0D01*
G01*
X166150000Y-98825000D01*
G75*
G02*
X165900000Y-98575000I0J250000D01*
G01*
G37*
G36*
G01*
X167800000Y-98575000D02*
X167800000Y-97625000D01*
G75*
G02*
X168050000Y-97375000I250000J0D01*
G01*
X168550000Y-97375000D01*
G75*
G02*
X168800000Y-97625000I0J-250000D01*
G01*
X168800000Y-98575000D01*
G75*
G02*
X168550000Y-98825000I-250000J0D01*
G01*
X168050000Y-98825000D01*
G75*
G02*
X167800000Y-98575000I0J250000D01*
G01*
G37*
G36*
G01*
X169725000Y-98350000D02*
X169725000Y-97850000D01*
G75*
G02*
X169950000Y-97625000I225000J0D01*
G01*
X170400000Y-97625000D01*
G75*
G02*
X170625000Y-97850000I0J-225000D01*
G01*
X170625000Y-98350000D01*
G75*
G02*
X170400000Y-98575000I-225000J0D01*
G01*
X169950000Y-98575000D01*
G75*
G02*
X169725000Y-98350000I0J225000D01*
G01*
G37*
G36*
G01*
X171275000Y-98350000D02*
X171275000Y-97850000D01*
G75*
G02*
X171500000Y-97625000I225000J0D01*
G01*
X171950000Y-97625000D01*
G75*
G02*
X172175000Y-97850000I0J-225000D01*
G01*
X172175000Y-98350000D01*
G75*
G02*
X171950000Y-98575000I-225000J0D01*
G01*
X171500000Y-98575000D01*
G75*
G02*
X171275000Y-98350000I0J225000D01*
G01*
G37*
G36*
G01*
X167650000Y-109175000D02*
X167650000Y-108225000D01*
G75*
G02*
X167900000Y-107975000I250000J0D01*
G01*
X168400000Y-107975000D01*
G75*
G02*
X168650000Y-108225000I0J-250000D01*
G01*
X168650000Y-109175000D01*
G75*
G02*
X168400000Y-109425000I-250000J0D01*
G01*
X167900000Y-109425000D01*
G75*
G02*
X167650000Y-109175000I0J250000D01*
G01*
G37*
G36*
G01*
X165750000Y-109175000D02*
X165750000Y-108225000D01*
G75*
G02*
X166000000Y-107975000I250000J0D01*
G01*
X166500000Y-107975000D01*
G75*
G02*
X166750000Y-108225000I0J-250000D01*
G01*
X166750000Y-109175000D01*
G75*
G02*
X166500000Y-109425000I-250000J0D01*
G01*
X166000000Y-109425000D01*
G75*
G02*
X165750000Y-109175000I0J250000D01*
G01*
G37*
G36*
G01*
X175025000Y-102325000D02*
X175025000Y-102875000D01*
G75*
G02*
X174825000Y-103075000I-200000J0D01*
G01*
X174425000Y-103075000D01*
G75*
G02*
X174225000Y-102875000I0J200000D01*
G01*
X174225000Y-102325000D01*
G75*
G02*
X174425000Y-102125000I200000J0D01*
G01*
X174825000Y-102125000D01*
G75*
G02*
X175025000Y-102325000I0J-200000D01*
G01*
G37*
G36*
G01*
X173375000Y-102325000D02*
X173375000Y-102875000D01*
G75*
G02*
X173175000Y-103075000I-200000J0D01*
G01*
X172775000Y-103075000D01*
G75*
G02*
X172575000Y-102875000I0J200000D01*
G01*
X172575000Y-102325000D01*
G75*
G02*
X172775000Y-102125000I200000J0D01*
G01*
X173175000Y-102125000D01*
G75*
G02*
X173375000Y-102325000I0J-200000D01*
G01*
G37*
G36*
G01*
X172725000Y-104775000D02*
X172175000Y-104775000D01*
G75*
G02*
X171975000Y-104575000I0J200000D01*
G01*
X171975000Y-104175000D01*
G75*
G02*
X172175000Y-103975000I200000J0D01*
G01*
X172725000Y-103975000D01*
G75*
G02*
X172925000Y-104175000I0J-200000D01*
G01*
X172925000Y-104575000D01*
G75*
G02*
X172725000Y-104775000I-200000J0D01*
G01*
G37*
G36*
G01*
X172725000Y-106425000D02*
X172175000Y-106425000D01*
G75*
G02*
X171975000Y-106225000I0J200000D01*
G01*
X171975000Y-105825000D01*
G75*
G02*
X172175000Y-105625000I200000J0D01*
G01*
X172725000Y-105625000D01*
G75*
G02*
X172925000Y-105825000I0J-200000D01*
G01*
X172925000Y-106225000D01*
G75*
G02*
X172725000Y-106425000I-200000J0D01*
G01*
G37*
D21*
X169300000Y-102300000D03*
X170250000Y-102300000D03*
X171200000Y-102300000D03*
X171200000Y-100100000D03*
X169300000Y-100100000D03*
X170250000Y-100100000D03*
G36*
G01*
X173825000Y-105700000D02*
X174775000Y-105700000D01*
G75*
G02*
X175025000Y-105950000I0J-250000D01*
G01*
X175025000Y-106450000D01*
G75*
G02*
X174775000Y-106700000I-250000J0D01*
G01*
X173825000Y-106700000D01*
G75*
G02*
X173575000Y-106450000I0J250000D01*
G01*
X173575000Y-105950000D01*
G75*
G02*
X173825000Y-105700000I250000J0D01*
G01*
G37*
G36*
G01*
X173825000Y-103800000D02*
X174775000Y-103800000D01*
G75*
G02*
X175025000Y-104050000I0J-250000D01*
G01*
X175025000Y-104550000D01*
G75*
G02*
X174775000Y-104800000I-250000J0D01*
G01*
X173825000Y-104800000D01*
G75*
G02*
X173575000Y-104550000I0J250000D01*
G01*
X173575000Y-104050000D01*
G75*
G02*
X173825000Y-103800000I250000J0D01*
G01*
G37*
G36*
G01*
X166975000Y-99750000D02*
X167925000Y-99750000D01*
G75*
G02*
X168175000Y-100000000I0J-250000D01*
G01*
X168175000Y-100500000D01*
G75*
G02*
X167925000Y-100750000I-250000J0D01*
G01*
X166975000Y-100750000D01*
G75*
G02*
X166725000Y-100500000I0J250000D01*
G01*
X166725000Y-100000000D01*
G75*
G02*
X166975000Y-99750000I250000J0D01*
G01*
G37*
G36*
G01*
X166975000Y-101650000D02*
X167925000Y-101650000D01*
G75*
G02*
X168175000Y-101900000I0J-250000D01*
G01*
X168175000Y-102400000D01*
G75*
G02*
X167925000Y-102650000I-250000J0D01*
G01*
X166975000Y-102650000D01*
G75*
G02*
X166725000Y-102400000I0J250000D01*
G01*
X166725000Y-101900000D01*
G75*
G02*
X166975000Y-101650000I250000J0D01*
G01*
G37*
D22*
X164985000Y-101500000D03*
X162615000Y-101500000D03*
G36*
G01*
X173325000Y-98025000D02*
X173875000Y-98025000D01*
G75*
G02*
X174075000Y-98225000I0J-200000D01*
G01*
X174075000Y-98625000D01*
G75*
G02*
X173875000Y-98825000I-200000J0D01*
G01*
X173325000Y-98825000D01*
G75*
G02*
X173125000Y-98625000I0J200000D01*
G01*
X173125000Y-98225000D01*
G75*
G02*
X173325000Y-98025000I200000J0D01*
G01*
G37*
G36*
G01*
X173325000Y-99675000D02*
X173875000Y-99675000D01*
G75*
G02*
X174075000Y-99875000I0J-200000D01*
G01*
X174075000Y-100275000D01*
G75*
G02*
X173875000Y-100475000I-200000J0D01*
G01*
X173325000Y-100475000D01*
G75*
G02*
X173125000Y-100275000I0J200000D01*
G01*
X173125000Y-99875000D01*
G75*
G02*
X173325000Y-99675000I200000J0D01*
G01*
G37*
D23*
X165800000Y-105800000D03*
X169800000Y-105800000D03*
X169350000Y-95300000D03*
X173350000Y-95300000D03*
D24*
X168600000Y-113150000D03*
D25*
X171400000Y-117950000D03*
D26*
X165600000Y-117950000D03*
M02*
