M48
; DRILL file {KiCad (5.1.10-1-10_14)} date Saturday, August 28, 2021 at 07:37:03 PM
; FORMAT={-:-/ absolute / metric / decimal}
; #@! TF.CreationDate,2021-08-28T19:37:03+10:00
; #@! TF.GenerationSoftware,Kicad,Pcbnew,(5.1.10-1-10_14)
; #@! TF.FileFunction,Plated,1,2,PTH
FMAT,2
METRIC
T1C0.400
T2C0.500
T3C0.700
T4C0.800
T5C3.200
%
G90
G05
T1
X110.35Y-96.75
X112.65Y-104.15
X112.65Y-109.15
X112.65Y-119.15
X114.75Y-89.5
X116.65Y-96.65
X117.65Y-79.15
X117.65Y-84.3
X117.65Y-99.15
X117.65Y-104.15
X117.65Y-119.2
X117.65Y-129.15
X120.15Y-109.15
X120.15Y-121.7
X120.5Y-96.85
X121.75Y-88.55
X122.4Y-79.15
X122.4Y-115.9
X122.65Y-129.2
X124.85Y-124.9
X125.0Y-117.55
X126.15Y-87.35
X126.8Y-96.9
X127.65Y-79.15
X128.05Y-98.65
X129.65Y-81.85
X130.15Y-109.15
X130.15Y-121.7
X130.425Y-116.975
X130.65Y-87.55
X131.05Y-125.5
X132.65Y-104.15
X132.65Y-129.2
X133.275Y-114.575
X134.75Y-82.25
X135.25Y-93.2
X135.85Y-101.25
X137.65Y-118.45
X138.88Y-87.95
X138.9Y-91.27
X138.925Y-89.725
X139.923Y-121.473
X140.15Y-109.15
X140.56Y-87.93
X140.59Y-89.69
X140.61Y-91.27
X140.65Y-97.15
X140.65Y-117.775
X142.22Y-87.98
X142.25Y-89.69
X142.25Y-91.22
X142.65Y-104.15
X142.65Y-129.2
X142.75Y-115.475
X143.425Y-121.35
X144.075Y-111.625
X144.075Y-113.175
X145.125Y-111.275
X145.25Y-113.275
X145.55Y-82.4
X145.65Y-118.15
X146.15Y-124.3
X147.775Y-87.45
X148.4Y-96.2
X149.575Y-116.375
X149.65Y-103.25
X149.948Y-121.498
X150.15Y-109.15
X151.0Y-125.55
X151.375Y-97.475
X151.55Y-82.25
X151.975Y-113.475
X152.125Y-101.375
X152.175Y-99.825
X152.5Y-94.65
X152.65Y-89.15
X152.65Y-97.15
X152.65Y-129.2
X152.675Y-109.275
X153.475Y-104.05
X153.475Y-107.675
X153.75Y-117.05
X153.775Y-100.075
X154.35Y-104.85
X154.35Y-108.25
X155.1Y-122.55
X155.15Y-89.15
X155.825Y-94.925
X157.65Y-79.15
X157.65Y-84.15
X157.65Y-119.2
X158.35Y-103.25
X158.5Y-108.05
X158.95Y-97.15
X159.75Y-86.35
X159.75Y-88.35
X160.15Y-83.25
X160.15Y-121.7
X160.65Y-91.15
X161.8Y-109.3
X162.15Y-113.15
X162.45Y-94.35
X162.65Y-129.2
X162.7Y-121.7
X163.4Y-81.55
X163.45Y-79.95
X164.75Y-83.35
X164.75Y-84.65
X164.75Y-98.8
X165.2Y-121.6
X166.45Y-96.7
X166.7Y-92.1
X167.55Y-103.7
X167.65Y-79.15
X167.65Y-84.15
X168.75Y-87.55
X169.2Y-107.5
X169.3Y-92.1
X169.4Y-121.85
X169.75Y-87.05
X170.25Y-103.7
X171.7Y-109.9
X172.35Y-87.05
X172.4Y-99.2
X172.9Y-97.3
X172.95Y-101.35
X173.85Y-93.6
X174.05Y-114.65
X174.1Y-97.35
X174.3Y-122.0
T2
X108.75Y-78.65
X108.75Y-130.85
X109.453Y-76.953
X109.453Y-80.347
X109.453Y-129.153
X109.453Y-132.547
X111.15Y-76.25
X111.15Y-81.05
X111.15Y-128.45
X111.15Y-133.25
X112.847Y-76.953
X112.847Y-80.347
X112.847Y-129.153
X112.847Y-132.547
X113.55Y-78.65
X113.55Y-130.85
X169.55Y-78.55
X169.55Y-130.85
X170.253Y-76.853
X170.253Y-80.247
X170.253Y-129.153
X170.253Y-132.547
X171.95Y-76.15
X171.95Y-80.95
X171.95Y-128.45
X171.95Y-133.25
X173.647Y-76.853
X173.647Y-80.247
X173.647Y-129.153
X173.647Y-132.547
X174.35Y-78.55
X174.35Y-130.85
T3
X171.05Y-86.0
X171.05Y-90.8
T5
X111.15Y-78.65
X111.15Y-130.85
X171.95Y-78.55
X171.95Y-130.85
T2
G00X173.55Y-92.0
M15
G01X174.35Y-92.0
M16
G05
G00X173.65Y-84.8
M15
G01X174.45Y-84.8
M16
G05
T4
G00X165.6Y-119.25
M15
G01X165.6Y-116.65
M16
G05
G00X169.7Y-113.15
M15
G01X167.5Y-113.15
M16
G05
G00X171.4Y-119.05
M15
G01X171.4Y-116.85
M16
G05
T0
M30
