G04 #@! TF.GenerationSoftware,KiCad,Pcbnew,(5.1.10-1-10_14)*
G04 #@! TF.CreationDate,2021-09-22T09:52:58+10:00*
G04 #@! TF.ProjectId,esp32_smart_keezer,65737033-325f-4736-9d61-72745f6b6565,1*
G04 #@! TF.SameCoordinates,Original*
G04 #@! TF.FileFunction,Copper,L2,Bot*
G04 #@! TF.FilePolarity,Positive*
%FSLAX46Y46*%
G04 Gerber Fmt 4.6, Leading zero omitted, Abs format (unit mm)*
G04 Created by KiCad (PCBNEW (5.1.10-1-10_14)) date 2021-09-22 09:52:58*
%MOMM*%
%LPD*%
G01*
G04 APERTURE LIST*
G04 #@! TA.AperFunction,ComponentPad*
%ADD10O,1.900000X1.070000*%
G04 #@! TD*
G04 #@! TA.AperFunction,ComponentPad*
%ADD11C,1.300000*%
G04 #@! TD*
G04 #@! TA.AperFunction,ComponentPad*
%ADD12C,0.800000*%
G04 #@! TD*
G04 #@! TA.AperFunction,ComponentPad*
%ADD13C,6.400000*%
G04 #@! TD*
G04 #@! TA.AperFunction,ComponentPad*
%ADD14O,4.000000X1.800000*%
G04 #@! TD*
G04 #@! TA.AperFunction,ComponentPad*
%ADD15O,1.800000X4.000000*%
G04 #@! TD*
G04 #@! TA.AperFunction,ComponentPad*
%ADD16R,1.800000X4.400000*%
G04 #@! TD*
G04 #@! TA.AperFunction,ViaPad*
%ADD17C,0.800000*%
G04 #@! TD*
G04 #@! TA.AperFunction,ViaPad*
%ADD18C,0.600000*%
G04 #@! TD*
G04 #@! TA.AperFunction,Conductor*
%ADD19C,0.167000*%
G04 #@! TD*
G04 #@! TA.AperFunction,Conductor*
%ADD20C,0.200000*%
G04 #@! TD*
G04 #@! TA.AperFunction,Conductor*
%ADD21C,2.500000*%
G04 #@! TD*
G04 #@! TA.AperFunction,Conductor*
%ADD22C,4.500000*%
G04 #@! TD*
G04 #@! TA.AperFunction,Conductor*
%ADD23C,0.254000*%
G04 #@! TD*
G04 #@! TA.AperFunction,Conductor*
%ADD24C,0.100000*%
G04 #@! TD*
G04 APERTURE END LIST*
D10*
X174050000Y-84800000D03*
X173950000Y-92000000D03*
D11*
X171050000Y-86000000D03*
X171050000Y-90800000D03*
D12*
X112847056Y-129152944D03*
X111150000Y-128450000D03*
X109452944Y-129152944D03*
X108750000Y-130850000D03*
X109452944Y-132547056D03*
X111150000Y-133250000D03*
X112847056Y-132547056D03*
X113550000Y-130850000D03*
D13*
X111150000Y-130850000D03*
D12*
X173647056Y-76852944D03*
X171950000Y-76150000D03*
X170252944Y-76852944D03*
X169550000Y-78550000D03*
X170252944Y-80247056D03*
X171950000Y-80950000D03*
X173647056Y-80247056D03*
X174350000Y-78550000D03*
D13*
X171950000Y-78550000D03*
X171950000Y-130850000D03*
D12*
X174350000Y-130850000D03*
X173647056Y-132547056D03*
X171950000Y-133250000D03*
X170252944Y-132547056D03*
X169550000Y-130850000D03*
X170252944Y-129152944D03*
X171950000Y-128450000D03*
X173647056Y-129152944D03*
X112847056Y-76952944D03*
X111150000Y-76250000D03*
X109452944Y-76952944D03*
X108750000Y-78650000D03*
X109452944Y-80347056D03*
X111150000Y-81050000D03*
X112847056Y-80347056D03*
X113550000Y-78650000D03*
D13*
X111150000Y-78650000D03*
D14*
X168400000Y-116500000D03*
D15*
X171200000Y-121300000D03*
D16*
X165400000Y-121300000D03*
D17*
X138900000Y-91270000D03*
X140610000Y-91270000D03*
X142250000Y-91220000D03*
X142250000Y-89690000D03*
X140590000Y-89690000D03*
X140560000Y-87930000D03*
X142220000Y-87980000D03*
X138880000Y-87950000D03*
X135850000Y-101250000D03*
X134750000Y-82250000D03*
X129650000Y-81850000D03*
X130650000Y-87550000D03*
X126150000Y-87350000D03*
X160150000Y-83250000D03*
X164750000Y-83350000D03*
X126800000Y-96900000D03*
X152650000Y-97150000D03*
X158950000Y-97150000D03*
X128050000Y-98650000D03*
X151550000Y-82250000D03*
X120150000Y-121700000D03*
X130150000Y-121700000D03*
X160150000Y-121700000D03*
X150150000Y-109150000D03*
X140150000Y-109150000D03*
X130150000Y-109150000D03*
X120150000Y-109150000D03*
X139923063Y-121473063D03*
X149948063Y-121498063D03*
X133275000Y-114575000D03*
X130425000Y-116975000D03*
X140650000Y-117775000D03*
X143425000Y-121350000D03*
X151975000Y-113475000D03*
X152675000Y-109275000D03*
X147775000Y-87450000D03*
X145550000Y-82400000D03*
X155825000Y-94925000D03*
X138925000Y-89725000D03*
X149575000Y-116375000D03*
X153175000Y-100750000D03*
X164750000Y-84650000D03*
X116650000Y-96650000D03*
X110350000Y-96750000D03*
X152650000Y-89150000D03*
X155150000Y-89150000D03*
X117650000Y-79150000D03*
X127650000Y-79150000D03*
X114750000Y-89500000D03*
X117650000Y-99150000D03*
X112650000Y-109150000D03*
X112575000Y-116150000D03*
X117650000Y-129150000D03*
X122650000Y-129200000D03*
X132650000Y-129200000D03*
X142650000Y-129200000D03*
X152650000Y-129200000D03*
X162650000Y-129200000D03*
X142650000Y-104150000D03*
X132650000Y-104150000D03*
X117650000Y-104150000D03*
X112650000Y-104150000D03*
X157650000Y-84150000D03*
X157650000Y-79150000D03*
X167650000Y-79150000D03*
X167650000Y-84150000D03*
X117650000Y-119200000D03*
X157650000Y-119200000D03*
X153750000Y-117050000D03*
X145650000Y-118150000D03*
X137650000Y-118450000D03*
X140650000Y-97150000D03*
X160650000Y-91150000D03*
X122400000Y-115900000D03*
X125000000Y-117550000D03*
X151000000Y-125550000D03*
X162700000Y-121700000D03*
X162550000Y-113150000D03*
X135250000Y-93200000D03*
X163450000Y-79950000D03*
X163400000Y-81550000D03*
X152500000Y-94650000D03*
X168500000Y-122950000D03*
X173925000Y-122975000D03*
X146150000Y-124300000D03*
X131050000Y-125500000D03*
X124850000Y-124900000D03*
X155100000Y-122550000D03*
X117650000Y-84300000D03*
X122400000Y-79150000D03*
X120500000Y-96850000D03*
X121750000Y-88550000D03*
X171150000Y-117925000D03*
X171150000Y-124425000D03*
X173925000Y-120025000D03*
X168500000Y-120000000D03*
D18*
X173850000Y-86325000D03*
X173850000Y-90525000D03*
X169525000Y-84025000D03*
X171950000Y-84025000D03*
D17*
X173750000Y-112950000D03*
X110625000Y-84300000D03*
X112625000Y-124925000D03*
X161050000Y-92750000D03*
D18*
X171650000Y-97950000D03*
X172850000Y-100050000D03*
X171650000Y-102150000D03*
X170650000Y-100050000D03*
X172350000Y-103350000D03*
X172350000Y-105450000D03*
X172350000Y-106750000D03*
X172350000Y-107950000D03*
X172350000Y-109250000D03*
D17*
X166050000Y-111150000D03*
X174050000Y-96850000D03*
X157050000Y-109150000D03*
X161050000Y-96550000D03*
X156850000Y-97250000D03*
D18*
X155550000Y-100350000D03*
X155550000Y-101750000D03*
X155550000Y-103150000D03*
X155650000Y-104250000D03*
X155650000Y-105950000D03*
X162850000Y-109250000D03*
X166050000Y-109250000D03*
X169950000Y-87050000D03*
X168750000Y-87550000D03*
X166850000Y-85350000D03*
X135850000Y-85350000D03*
D17*
X159750000Y-86350000D03*
X159750000Y-88350000D03*
X151375000Y-97475000D03*
X153475000Y-107675000D03*
X153475000Y-104050000D03*
X144025000Y-111175000D03*
X144075000Y-112699490D03*
X151600000Y-100925000D03*
X154350000Y-108250000D03*
X154350000Y-104850000D03*
X149650000Y-103250000D03*
X148400000Y-96200002D03*
X145125000Y-110850000D03*
X145250000Y-113033500D03*
D18*
X157800000Y-114850000D03*
X159100000Y-114850000D03*
X160850000Y-99950000D03*
X163550000Y-99950000D03*
X163550000Y-102650000D03*
X166150000Y-102650000D03*
X166150000Y-99950000D03*
X160450000Y-107950000D03*
X160850000Y-102650000D03*
X158450000Y-113450000D03*
D19*
X166850000Y-85350000D02*
X135850000Y-85350000D01*
D20*
X159750000Y-86350000D02*
X159750000Y-88350000D01*
D19*
X153475000Y-107675000D02*
X153475000Y-104050000D01*
X144025000Y-112649490D02*
X144075000Y-112699490D01*
X144025000Y-111175000D02*
X144025000Y-112649490D01*
X151375000Y-97475000D02*
X151375000Y-100700000D01*
X151375000Y-100700000D02*
X151600000Y-100925000D01*
X154350000Y-108250000D02*
X154350000Y-104850000D01*
X149650000Y-103250000D02*
X149650000Y-97450002D01*
X149650000Y-97450002D02*
X148400000Y-96200002D01*
X145125000Y-112908500D02*
X145250000Y-113033500D01*
X145125000Y-110850000D02*
X145125000Y-112908500D01*
D21*
X159175000Y-112850000D02*
X157800000Y-114225000D01*
X159250000Y-112850000D02*
X159175000Y-112850000D01*
X159100000Y-114225000D02*
X159100000Y-105725000D01*
X159097680Y-102202320D02*
X159097680Y-105457335D01*
X160950000Y-100350000D02*
X159097680Y-102202320D01*
D22*
X161950000Y-101150000D02*
X165150000Y-101150000D01*
D21*
X161950000Y-101150000D02*
X160450000Y-102650000D01*
X160450000Y-107525736D02*
X160450000Y-107950000D01*
X160450000Y-102650000D02*
X160450000Y-107525736D01*
X160450000Y-112235000D02*
X160450000Y-107950000D01*
X158495000Y-114190000D02*
X160450000Y-112235000D01*
D23*
X126770443Y-75371560D02*
X127271069Y-75522707D01*
X127732797Y-75768213D01*
X128138045Y-76098725D01*
X128471382Y-76501659D01*
X128720104Y-76961662D01*
X128874744Y-77461222D01*
X128930985Y-77996333D01*
X128931002Y-78001112D01*
X128931075Y-78022056D01*
X128932483Y-78035922D01*
X128932386Y-78049856D01*
X128932821Y-78054289D01*
X128994021Y-78636578D01*
X128999841Y-78664930D01*
X129005253Y-78693301D01*
X129006540Y-78697565D01*
X129179677Y-79256879D01*
X129190904Y-79283586D01*
X129201712Y-79310338D01*
X129203801Y-79314267D01*
X129203803Y-79314272D01*
X129203806Y-79314276D01*
X129482279Y-79829303D01*
X129498444Y-79853269D01*
X129514278Y-79877466D01*
X129517093Y-79880917D01*
X129890303Y-80332050D01*
X129910821Y-80352425D01*
X129931047Y-80373080D01*
X129934479Y-80375919D01*
X130388208Y-80745971D01*
X130412297Y-80761976D01*
X130436146Y-80778306D01*
X130440056Y-80780420D01*
X130440064Y-80780425D01*
X130440072Y-80780428D01*
X130957028Y-81055299D01*
X130983788Y-81066329D01*
X131010333Y-81077706D01*
X131014582Y-81079021D01*
X131014589Y-81079024D01*
X131014596Y-81079025D01*
X131575096Y-81248250D01*
X131603465Y-81253867D01*
X131631738Y-81259877D01*
X131636168Y-81260343D01*
X132218736Y-81317464D01*
X132234333Y-81319000D01*
X150965667Y-81319000D01*
X150966222Y-81318945D01*
X150972056Y-81318925D01*
X150985922Y-81317517D01*
X150999856Y-81317614D01*
X151004289Y-81317179D01*
X151586578Y-81255979D01*
X151614930Y-81250159D01*
X151643301Y-81244747D01*
X151647565Y-81243460D01*
X152206879Y-81070323D01*
X152233586Y-81059096D01*
X152260338Y-81048288D01*
X152264267Y-81046199D01*
X152264272Y-81046197D01*
X152264276Y-81046194D01*
X152779303Y-80767721D01*
X152803269Y-80751556D01*
X152827466Y-80735722D01*
X152830917Y-80732907D01*
X153282050Y-80359697D01*
X153302425Y-80339179D01*
X153323080Y-80318953D01*
X153325919Y-80315521D01*
X153695971Y-79861792D01*
X153711976Y-79837703D01*
X153728306Y-79813854D01*
X153730420Y-79809944D01*
X153730425Y-79809936D01*
X153730428Y-79809928D01*
X154005299Y-79292972D01*
X154016329Y-79266212D01*
X154027706Y-79239667D01*
X154029021Y-79235418D01*
X154029024Y-79235411D01*
X154029025Y-79235404D01*
X154198250Y-78674904D01*
X154203867Y-78646535D01*
X154209877Y-78618262D01*
X154210343Y-78613832D01*
X154267465Y-78031255D01*
X154267478Y-78031129D01*
X154321560Y-77479557D01*
X154472707Y-76978931D01*
X154718213Y-76517203D01*
X155048725Y-76111955D01*
X155451659Y-75778618D01*
X155911662Y-75529896D01*
X156411222Y-75375256D01*
X156946333Y-75319015D01*
X156950435Y-75319000D01*
X170595145Y-75329321D01*
X170294970Y-75453657D01*
X169722705Y-75836033D01*
X169236033Y-76322705D01*
X168853657Y-76894970D01*
X168590272Y-77530838D01*
X168456000Y-78205871D01*
X168456000Y-78894129D01*
X168590272Y-79569162D01*
X168853657Y-80205030D01*
X169236033Y-80777295D01*
X169722705Y-81263967D01*
X170294970Y-81646343D01*
X170930838Y-81909728D01*
X171605871Y-82044000D01*
X172294129Y-82044000D01*
X172969162Y-81909728D01*
X173605030Y-81646343D01*
X174177295Y-81263967D01*
X174663967Y-80777295D01*
X175046343Y-80205030D01*
X175131000Y-80000650D01*
X175131000Y-84304764D01*
X175054028Y-84210972D01*
X174927796Y-84107377D01*
X174783780Y-84030398D01*
X174627512Y-83982995D01*
X174505724Y-83971000D01*
X173594276Y-83971000D01*
X173472488Y-83982995D01*
X173316220Y-84030398D01*
X173172204Y-84107377D01*
X173045972Y-84210972D01*
X172942377Y-84337204D01*
X172865398Y-84481220D01*
X172817995Y-84637488D01*
X172801989Y-84800000D01*
X172817995Y-84962512D01*
X172865398Y-85118780D01*
X172942377Y-85262796D01*
X173045972Y-85389028D01*
X173172204Y-85492623D01*
X173316220Y-85569602D01*
X173472488Y-85617005D01*
X173594276Y-85629000D01*
X174505724Y-85629000D01*
X174627512Y-85617005D01*
X174783780Y-85569602D01*
X174927796Y-85492623D01*
X175054028Y-85389028D01*
X175131000Y-85295236D01*
X175131000Y-91674482D01*
X175057623Y-91537204D01*
X174954028Y-91410972D01*
X174827796Y-91307377D01*
X174683780Y-91230398D01*
X174527512Y-91182995D01*
X174405724Y-91171000D01*
X173494276Y-91171000D01*
X173372488Y-91182995D01*
X173216220Y-91230398D01*
X173072204Y-91307377D01*
X172945972Y-91410972D01*
X172842377Y-91537204D01*
X172765398Y-91681220D01*
X172717995Y-91837488D01*
X172701989Y-92000000D01*
X172717995Y-92162512D01*
X172765398Y-92318780D01*
X172842377Y-92462796D01*
X172945972Y-92589028D01*
X173072204Y-92692623D01*
X173216220Y-92769602D01*
X173372488Y-92817005D01*
X173494276Y-92829000D01*
X174405724Y-92829000D01*
X174527512Y-92817005D01*
X174683780Y-92769602D01*
X174827796Y-92692623D01*
X174954028Y-92589028D01*
X175057623Y-92462796D01*
X175131000Y-92325518D01*
X175131001Y-129399353D01*
X175046343Y-129194970D01*
X174663967Y-128622705D01*
X174177295Y-128136033D01*
X173605030Y-127753657D01*
X172969162Y-127490272D01*
X172294129Y-127356000D01*
X171605871Y-127356000D01*
X170930838Y-127490272D01*
X170294970Y-127753657D01*
X169722705Y-128136033D01*
X169236033Y-128622705D01*
X168853657Y-129194970D01*
X168590272Y-129830838D01*
X168456000Y-130505871D01*
X168456000Y-131194129D01*
X168590272Y-131869162D01*
X168853657Y-132505030D01*
X169236033Y-133077295D01*
X169722705Y-133563967D01*
X170294970Y-133946343D01*
X170499350Y-134031000D01*
X112600650Y-134031000D01*
X112805030Y-133946343D01*
X113377295Y-133563967D01*
X113863967Y-133077295D01*
X114246343Y-132505030D01*
X114509728Y-131869162D01*
X114644000Y-131194129D01*
X114644000Y-130505871D01*
X114509728Y-129830838D01*
X114246343Y-129194970D01*
X113863967Y-128622705D01*
X113377295Y-128136033D01*
X112805030Y-127753657D01*
X112169162Y-127490272D01*
X111494129Y-127356000D01*
X110805871Y-127356000D01*
X110130838Y-127490272D01*
X109494970Y-127753657D01*
X108922705Y-128136033D01*
X108436033Y-128622705D01*
X108053657Y-129194970D01*
X107969000Y-129399350D01*
X107969000Y-119100000D01*
X164204578Y-119100000D01*
X164204578Y-123500000D01*
X164210254Y-123557634D01*
X164227066Y-123613053D01*
X164254366Y-123664128D01*
X164291105Y-123708895D01*
X164335872Y-123745634D01*
X164386947Y-123772934D01*
X164442366Y-123789746D01*
X164500000Y-123795422D01*
X166300000Y-123795422D01*
X166357634Y-123789746D01*
X166413053Y-123772934D01*
X166464128Y-123745634D01*
X166508895Y-123708895D01*
X166545634Y-123664128D01*
X166572934Y-123613053D01*
X166589746Y-123557634D01*
X166595422Y-123500000D01*
X166595422Y-121423000D01*
X169973000Y-121423000D01*
X169973000Y-122523000D01*
X170020573Y-122760012D01*
X170113470Y-122983189D01*
X170248122Y-123183955D01*
X170419354Y-123354594D01*
X170620586Y-123488548D01*
X170844084Y-123580670D01*
X170887536Y-123586547D01*
X171077000Y-123538626D01*
X171077000Y-121423000D01*
X171323000Y-121423000D01*
X171323000Y-123538626D01*
X171512464Y-123586547D01*
X171555916Y-123580670D01*
X171779414Y-123488548D01*
X171980646Y-123354594D01*
X172151878Y-123183955D01*
X172286530Y-122983189D01*
X172379427Y-122760012D01*
X172427000Y-122523000D01*
X172427000Y-121423000D01*
X171323000Y-121423000D01*
X171077000Y-121423000D01*
X169973000Y-121423000D01*
X166595422Y-121423000D01*
X166595422Y-120077000D01*
X169973000Y-120077000D01*
X169973000Y-121177000D01*
X171077000Y-121177000D01*
X171077000Y-119061374D01*
X171323000Y-119061374D01*
X171323000Y-121177000D01*
X172427000Y-121177000D01*
X172427000Y-120077000D01*
X172379427Y-119839988D01*
X172286530Y-119616811D01*
X172151878Y-119416045D01*
X171980646Y-119245406D01*
X171779414Y-119111452D01*
X171555916Y-119019330D01*
X171512464Y-119013453D01*
X171323000Y-119061374D01*
X171077000Y-119061374D01*
X170887536Y-119013453D01*
X170844084Y-119019330D01*
X170620586Y-119111452D01*
X170419354Y-119245406D01*
X170248122Y-119416045D01*
X170113470Y-119616811D01*
X170020573Y-119839988D01*
X169973000Y-120077000D01*
X166595422Y-120077000D01*
X166595422Y-119100000D01*
X166589746Y-119042366D01*
X166572934Y-118986947D01*
X166545634Y-118935872D01*
X166508895Y-118891105D01*
X166464128Y-118854366D01*
X166413053Y-118827066D01*
X166357634Y-118810254D01*
X166300000Y-118804578D01*
X164500000Y-118804578D01*
X164442366Y-118810254D01*
X164386947Y-118827066D01*
X164335872Y-118854366D01*
X164291105Y-118891105D01*
X164254366Y-118935872D01*
X164227066Y-118986947D01*
X164210254Y-119042366D01*
X164204578Y-119100000D01*
X107969000Y-119100000D01*
X107969000Y-116500000D01*
X166100223Y-116500000D01*
X166123276Y-116734065D01*
X166191551Y-116959135D01*
X166302422Y-117166560D01*
X166451630Y-117348370D01*
X166633440Y-117497578D01*
X166840865Y-117608449D01*
X167065935Y-117676724D01*
X167241344Y-117694000D01*
X169558656Y-117694000D01*
X169734065Y-117676724D01*
X169959135Y-117608449D01*
X170166560Y-117497578D01*
X170348370Y-117348370D01*
X170497578Y-117166560D01*
X170608449Y-116959135D01*
X170676724Y-116734065D01*
X170699777Y-116500000D01*
X170676724Y-116265935D01*
X170608449Y-116040865D01*
X170497578Y-115833440D01*
X170348370Y-115651630D01*
X170166560Y-115502422D01*
X169959135Y-115391551D01*
X169734065Y-115323276D01*
X169558656Y-115306000D01*
X167241344Y-115306000D01*
X167065935Y-115323276D01*
X166840865Y-115391551D01*
X166633440Y-115502422D01*
X166451630Y-115651630D01*
X166302422Y-115833440D01*
X166191551Y-116040865D01*
X166123276Y-116265935D01*
X166100223Y-116500000D01*
X107969000Y-116500000D01*
X107969000Y-114225000D01*
X156248530Y-114225000D01*
X156278341Y-114527676D01*
X156366629Y-114818721D01*
X156510000Y-115086950D01*
X156702946Y-115322054D01*
X156938050Y-115515000D01*
X157206279Y-115658371D01*
X157497324Y-115746659D01*
X157800000Y-115776470D01*
X158102676Y-115746659D01*
X158211748Y-115713572D01*
X158495000Y-115741470D01*
X158710310Y-115720264D01*
X158797323Y-115746659D01*
X159100000Y-115776470D01*
X159402676Y-115746659D01*
X159693721Y-115658371D01*
X159961950Y-115515000D01*
X160197055Y-115322055D01*
X160390000Y-115086951D01*
X160533371Y-114818722D01*
X160621659Y-114527677D01*
X160644000Y-114300844D01*
X160644000Y-114224546D01*
X161488145Y-113380401D01*
X161547055Y-113332055D01*
X161672942Y-113178662D01*
X161740000Y-113096951D01*
X161883371Y-112828722D01*
X161971659Y-112537677D01*
X162001470Y-112235000D01*
X161994000Y-112159156D01*
X161994000Y-103694000D01*
X165274975Y-103694000D01*
X165648711Y-103657190D01*
X166128257Y-103511722D01*
X166570209Y-103275493D01*
X166957583Y-102957583D01*
X167275493Y-102570209D01*
X167511722Y-102128257D01*
X167657190Y-101648711D01*
X167706309Y-101150000D01*
X167657190Y-100651289D01*
X167511722Y-100171743D01*
X167275493Y-99729791D01*
X166957583Y-99342417D01*
X166570209Y-99024507D01*
X166128257Y-98788278D01*
X165648711Y-98642810D01*
X165274975Y-98606000D01*
X161825025Y-98606000D01*
X161451289Y-98642810D01*
X160971743Y-98788278D01*
X160952164Y-98798743D01*
X160949999Y-98798530D01*
X160647323Y-98828341D01*
X160356278Y-98916629D01*
X160088049Y-99060000D01*
X159911856Y-99204598D01*
X158059542Y-101056913D01*
X158000625Y-101105265D01*
X157837261Y-101304325D01*
X157807680Y-101340370D01*
X157664309Y-101608599D01*
X157576021Y-101899644D01*
X157546210Y-102202320D01*
X157553680Y-102278165D01*
X157553681Y-105533179D01*
X157560552Y-105602945D01*
X157556001Y-105649156D01*
X157556000Y-112285455D01*
X156654598Y-113186857D01*
X156510000Y-113363050D01*
X156366629Y-113631279D01*
X156278341Y-113922324D01*
X156248530Y-114225000D01*
X107969000Y-114225000D01*
X107969000Y-111106647D01*
X143331000Y-111106647D01*
X143331000Y-111243353D01*
X143357670Y-111377432D01*
X143409985Y-111503732D01*
X143485935Y-111617399D01*
X143582601Y-111714065D01*
X143647500Y-111757429D01*
X143647501Y-112150469D01*
X143632601Y-112160425D01*
X143535935Y-112257091D01*
X143459985Y-112370758D01*
X143407670Y-112497058D01*
X143381000Y-112631137D01*
X143381000Y-112767843D01*
X143407670Y-112901922D01*
X143459985Y-113028222D01*
X143535935Y-113141889D01*
X143632601Y-113238555D01*
X143746268Y-113314505D01*
X143872568Y-113366820D01*
X144006647Y-113393490D01*
X144143353Y-113393490D01*
X144277432Y-113366820D01*
X144403732Y-113314505D01*
X144517399Y-113238555D01*
X144572276Y-113183678D01*
X144582670Y-113235932D01*
X144634985Y-113362232D01*
X144710935Y-113475899D01*
X144807601Y-113572565D01*
X144921268Y-113648515D01*
X145047568Y-113700830D01*
X145181647Y-113727500D01*
X145318353Y-113727500D01*
X145452432Y-113700830D01*
X145578732Y-113648515D01*
X145692399Y-113572565D01*
X145789065Y-113475899D01*
X145865015Y-113362232D01*
X145917330Y-113235932D01*
X145944000Y-113101853D01*
X145944000Y-112965147D01*
X145917330Y-112831068D01*
X145865015Y-112704768D01*
X145789065Y-112591101D01*
X145692399Y-112494435D01*
X145578732Y-112418485D01*
X145502500Y-112386909D01*
X145502500Y-111432429D01*
X145567399Y-111389065D01*
X145664065Y-111292399D01*
X145740015Y-111178732D01*
X145792330Y-111052432D01*
X145819000Y-110918353D01*
X145819000Y-110781647D01*
X145792330Y-110647568D01*
X145740015Y-110521268D01*
X145664065Y-110407601D01*
X145567399Y-110310935D01*
X145453732Y-110234985D01*
X145327432Y-110182670D01*
X145193353Y-110156000D01*
X145056647Y-110156000D01*
X144922568Y-110182670D01*
X144796268Y-110234985D01*
X144682601Y-110310935D01*
X144585935Y-110407601D01*
X144509985Y-110521268D01*
X144463553Y-110633365D01*
X144353732Y-110559985D01*
X144227432Y-110507670D01*
X144093353Y-110481000D01*
X143956647Y-110481000D01*
X143822568Y-110507670D01*
X143696268Y-110559985D01*
X143582601Y-110635935D01*
X143485935Y-110732601D01*
X143409985Y-110846268D01*
X143357670Y-110972568D01*
X143331000Y-111106647D01*
X107969000Y-111106647D01*
X107969000Y-103981647D01*
X152781000Y-103981647D01*
X152781000Y-104118353D01*
X152807670Y-104252432D01*
X152859985Y-104378732D01*
X152935935Y-104492399D01*
X153032601Y-104589065D01*
X153097501Y-104632430D01*
X153097500Y-107092571D01*
X153032601Y-107135935D01*
X152935935Y-107232601D01*
X152859985Y-107346268D01*
X152807670Y-107472568D01*
X152781000Y-107606647D01*
X152781000Y-107743353D01*
X152807670Y-107877432D01*
X152859985Y-108003732D01*
X152935935Y-108117399D01*
X153032601Y-108214065D01*
X153146268Y-108290015D01*
X153272568Y-108342330D01*
X153406647Y-108369000D01*
X153543353Y-108369000D01*
X153661404Y-108345518D01*
X153682670Y-108452432D01*
X153734985Y-108578732D01*
X153810935Y-108692399D01*
X153907601Y-108789065D01*
X154021268Y-108865015D01*
X154147568Y-108917330D01*
X154281647Y-108944000D01*
X154418353Y-108944000D01*
X154552432Y-108917330D01*
X154678732Y-108865015D01*
X154792399Y-108789065D01*
X154889065Y-108692399D01*
X154965015Y-108578732D01*
X155017330Y-108452432D01*
X155044000Y-108318353D01*
X155044000Y-108181647D01*
X155017330Y-108047568D01*
X154965015Y-107921268D01*
X154889065Y-107807601D01*
X154792399Y-107710935D01*
X154727500Y-107667571D01*
X154727500Y-105432429D01*
X154792399Y-105389065D01*
X154889065Y-105292399D01*
X154965015Y-105178732D01*
X155017330Y-105052432D01*
X155044000Y-104918353D01*
X155044000Y-104781647D01*
X155017330Y-104647568D01*
X154965015Y-104521268D01*
X154889065Y-104407601D01*
X154792399Y-104310935D01*
X154678732Y-104234985D01*
X154552432Y-104182670D01*
X154418353Y-104156000D01*
X154281647Y-104156000D01*
X154156562Y-104180881D01*
X154169000Y-104118353D01*
X154169000Y-103981647D01*
X154142330Y-103847568D01*
X154090015Y-103721268D01*
X154014065Y-103607601D01*
X153917399Y-103510935D01*
X153803732Y-103434985D01*
X153677432Y-103382670D01*
X153543353Y-103356000D01*
X153406647Y-103356000D01*
X153272568Y-103382670D01*
X153146268Y-103434985D01*
X153032601Y-103510935D01*
X152935935Y-103607601D01*
X152859985Y-103721268D01*
X152807670Y-103847568D01*
X152781000Y-103981647D01*
X107969000Y-103981647D01*
X107969000Y-96131649D01*
X147706000Y-96131649D01*
X147706000Y-96268355D01*
X147732670Y-96402434D01*
X147784985Y-96528734D01*
X147860935Y-96642401D01*
X147957601Y-96739067D01*
X148071268Y-96815017D01*
X148197568Y-96867332D01*
X148331647Y-96894002D01*
X148468353Y-96894002D01*
X148544908Y-96878774D01*
X149272501Y-97606368D01*
X149272500Y-102667571D01*
X149207601Y-102710935D01*
X149110935Y-102807601D01*
X149034985Y-102921268D01*
X148982670Y-103047568D01*
X148956000Y-103181647D01*
X148956000Y-103318353D01*
X148982670Y-103452432D01*
X149034985Y-103578732D01*
X149110935Y-103692399D01*
X149207601Y-103789065D01*
X149321268Y-103865015D01*
X149447568Y-103917330D01*
X149581647Y-103944000D01*
X149718353Y-103944000D01*
X149852432Y-103917330D01*
X149978732Y-103865015D01*
X150092399Y-103789065D01*
X150189065Y-103692399D01*
X150265015Y-103578732D01*
X150317330Y-103452432D01*
X150344000Y-103318353D01*
X150344000Y-103181647D01*
X150317330Y-103047568D01*
X150265015Y-102921268D01*
X150189065Y-102807601D01*
X150092399Y-102710935D01*
X150027500Y-102667571D01*
X150027500Y-97468541D01*
X150029326Y-97450002D01*
X150025056Y-97406647D01*
X150681000Y-97406647D01*
X150681000Y-97543353D01*
X150707670Y-97677432D01*
X150759985Y-97803732D01*
X150835935Y-97917399D01*
X150932601Y-98014065D01*
X150997500Y-98057429D01*
X150997501Y-100577537D01*
X150984985Y-100596268D01*
X150932670Y-100722568D01*
X150906000Y-100856647D01*
X150906000Y-100993353D01*
X150932670Y-101127432D01*
X150984985Y-101253732D01*
X151060935Y-101367399D01*
X151157601Y-101464065D01*
X151271268Y-101540015D01*
X151397568Y-101592330D01*
X151531647Y-101619000D01*
X151668353Y-101619000D01*
X151802432Y-101592330D01*
X151928732Y-101540015D01*
X152042399Y-101464065D01*
X152139065Y-101367399D01*
X152215015Y-101253732D01*
X152267330Y-101127432D01*
X152294000Y-100993353D01*
X152294000Y-100856647D01*
X152267330Y-100722568D01*
X152215015Y-100596268D01*
X152139065Y-100482601D01*
X152042399Y-100385935D01*
X151928732Y-100309985D01*
X151802432Y-100257670D01*
X151752500Y-100247738D01*
X151752500Y-98057429D01*
X151817399Y-98014065D01*
X151914065Y-97917399D01*
X151990015Y-97803732D01*
X152042330Y-97677432D01*
X152069000Y-97543353D01*
X152069000Y-97406647D01*
X152042330Y-97272568D01*
X151990015Y-97146268D01*
X151914065Y-97032601D01*
X151817399Y-96935935D01*
X151703732Y-96859985D01*
X151577432Y-96807670D01*
X151443353Y-96781000D01*
X151306647Y-96781000D01*
X151172568Y-96807670D01*
X151046268Y-96859985D01*
X150932601Y-96935935D01*
X150835935Y-97032601D01*
X150759985Y-97146268D01*
X150707670Y-97272568D01*
X150681000Y-97406647D01*
X150025056Y-97406647D01*
X150022037Y-97375999D01*
X150000452Y-97304840D01*
X149965398Y-97239260D01*
X149918224Y-97181778D01*
X149903820Y-97169957D01*
X149078772Y-96344910D01*
X149094000Y-96268355D01*
X149094000Y-96131649D01*
X149067330Y-95997570D01*
X149015015Y-95871270D01*
X148939065Y-95757603D01*
X148842399Y-95660937D01*
X148728732Y-95584987D01*
X148602432Y-95532672D01*
X148468353Y-95506002D01*
X148331647Y-95506002D01*
X148197568Y-95532672D01*
X148071268Y-95584987D01*
X147957601Y-95660937D01*
X147860935Y-95757603D01*
X147784985Y-95871270D01*
X147732670Y-95997570D01*
X147706000Y-96131649D01*
X107969000Y-96131649D01*
X107969000Y-90707024D01*
X170106000Y-90707024D01*
X170106000Y-90892976D01*
X170142277Y-91075355D01*
X170213438Y-91247152D01*
X170316747Y-91401765D01*
X170448235Y-91533253D01*
X170602848Y-91636562D01*
X170774645Y-91707723D01*
X170957024Y-91744000D01*
X171142976Y-91744000D01*
X171325355Y-91707723D01*
X171497152Y-91636562D01*
X171651765Y-91533253D01*
X171783253Y-91401765D01*
X171886562Y-91247152D01*
X171957723Y-91075355D01*
X171994000Y-90892976D01*
X171994000Y-90707024D01*
X171957723Y-90524645D01*
X171886562Y-90352848D01*
X171783253Y-90198235D01*
X171651765Y-90066747D01*
X171497152Y-89963438D01*
X171325355Y-89892277D01*
X171142976Y-89856000D01*
X170957024Y-89856000D01*
X170774645Y-89892277D01*
X170602848Y-89963438D01*
X170448235Y-90066747D01*
X170316747Y-90198235D01*
X170213438Y-90352848D01*
X170142277Y-90524645D01*
X170106000Y-90707024D01*
X107969000Y-90707024D01*
X107969000Y-85291496D01*
X135256000Y-85291496D01*
X135256000Y-85408504D01*
X135278827Y-85523263D01*
X135323604Y-85631364D01*
X135388610Y-85728653D01*
X135471347Y-85811390D01*
X135568636Y-85876396D01*
X135676737Y-85921173D01*
X135791496Y-85944000D01*
X135908504Y-85944000D01*
X136023263Y-85921173D01*
X136131364Y-85876396D01*
X136228653Y-85811390D01*
X136311390Y-85728653D01*
X136312160Y-85727500D01*
X159439338Y-85727500D01*
X159421268Y-85734985D01*
X159307601Y-85810935D01*
X159210935Y-85907601D01*
X159134985Y-86021268D01*
X159082670Y-86147568D01*
X159056000Y-86281647D01*
X159056000Y-86418353D01*
X159082670Y-86552432D01*
X159134985Y-86678732D01*
X159210935Y-86792399D01*
X159307601Y-86889065D01*
X159356000Y-86921404D01*
X159356001Y-87778595D01*
X159307601Y-87810935D01*
X159210935Y-87907601D01*
X159134985Y-88021268D01*
X159082670Y-88147568D01*
X159056000Y-88281647D01*
X159056000Y-88418353D01*
X159082670Y-88552432D01*
X159134985Y-88678732D01*
X159210935Y-88792399D01*
X159307601Y-88889065D01*
X159421268Y-88965015D01*
X159547568Y-89017330D01*
X159681647Y-89044000D01*
X159818353Y-89044000D01*
X159952432Y-89017330D01*
X160078732Y-88965015D01*
X160192399Y-88889065D01*
X160289065Y-88792399D01*
X160365015Y-88678732D01*
X160417330Y-88552432D01*
X160444000Y-88418353D01*
X160444000Y-88281647D01*
X160417330Y-88147568D01*
X160365015Y-88021268D01*
X160289065Y-87907601D01*
X160192399Y-87810935D01*
X160144000Y-87778596D01*
X160144000Y-86921404D01*
X160192399Y-86889065D01*
X160289065Y-86792399D01*
X160365015Y-86678732D01*
X160417330Y-86552432D01*
X160444000Y-86418353D01*
X160444000Y-86281647D01*
X160417330Y-86147568D01*
X160365015Y-86021268D01*
X160289065Y-85907601D01*
X160192399Y-85810935D01*
X160078732Y-85734985D01*
X160060662Y-85727500D01*
X166387840Y-85727500D01*
X166388610Y-85728653D01*
X166471347Y-85811390D01*
X166568636Y-85876396D01*
X166676737Y-85921173D01*
X166791496Y-85944000D01*
X166908504Y-85944000D01*
X167023263Y-85921173D01*
X167057421Y-85907024D01*
X170106000Y-85907024D01*
X170106000Y-86092976D01*
X170142277Y-86275355D01*
X170213438Y-86447152D01*
X170316747Y-86601765D01*
X170448235Y-86733253D01*
X170602848Y-86836562D01*
X170774645Y-86907723D01*
X170957024Y-86944000D01*
X171142976Y-86944000D01*
X171325355Y-86907723D01*
X171497152Y-86836562D01*
X171651765Y-86733253D01*
X171783253Y-86601765D01*
X171886562Y-86447152D01*
X171957723Y-86275355D01*
X171994000Y-86092976D01*
X171994000Y-85907024D01*
X171957723Y-85724645D01*
X171886562Y-85552848D01*
X171783253Y-85398235D01*
X171651765Y-85266747D01*
X171497152Y-85163438D01*
X171325355Y-85092277D01*
X171142976Y-85056000D01*
X170957024Y-85056000D01*
X170774645Y-85092277D01*
X170602848Y-85163438D01*
X170448235Y-85266747D01*
X170316747Y-85398235D01*
X170213438Y-85552848D01*
X170142277Y-85724645D01*
X170106000Y-85907024D01*
X167057421Y-85907024D01*
X167131364Y-85876396D01*
X167228653Y-85811390D01*
X167311390Y-85728653D01*
X167376396Y-85631364D01*
X167421173Y-85523263D01*
X167444000Y-85408504D01*
X167444000Y-85291496D01*
X167421173Y-85176737D01*
X167376396Y-85068636D01*
X167311390Y-84971347D01*
X167228653Y-84888610D01*
X167131364Y-84823604D01*
X167023263Y-84778827D01*
X166908504Y-84756000D01*
X166791496Y-84756000D01*
X166676737Y-84778827D01*
X166568636Y-84823604D01*
X166471347Y-84888610D01*
X166388610Y-84971347D01*
X166387840Y-84972500D01*
X136312160Y-84972500D01*
X136311390Y-84971347D01*
X136228653Y-84888610D01*
X136131364Y-84823604D01*
X136023263Y-84778827D01*
X135908504Y-84756000D01*
X135791496Y-84756000D01*
X135676737Y-84778827D01*
X135568636Y-84823604D01*
X135471347Y-84888610D01*
X135388610Y-84971347D01*
X135323604Y-85068636D01*
X135278827Y-85176737D01*
X135256000Y-85291496D01*
X107969000Y-85291496D01*
X107969000Y-80100650D01*
X108053657Y-80305030D01*
X108436033Y-80877295D01*
X108922705Y-81363967D01*
X109494970Y-81746343D01*
X110130838Y-82009728D01*
X110805871Y-82144000D01*
X111494129Y-82144000D01*
X112169162Y-82009728D01*
X112805030Y-81746343D01*
X113377295Y-81363967D01*
X113863967Y-80877295D01*
X114246343Y-80305030D01*
X114509728Y-79669162D01*
X114644000Y-78994129D01*
X114644000Y-78305871D01*
X114509728Y-77630838D01*
X114246343Y-76994970D01*
X113863967Y-76422705D01*
X113377295Y-75936033D01*
X112805030Y-75553657D01*
X112238518Y-75319000D01*
X126234394Y-75319000D01*
X126770443Y-75371560D01*
G04 #@! TA.AperFunction,Conductor*
D24*
G36*
X126770443Y-75371560D02*
G01*
X127271069Y-75522707D01*
X127732797Y-75768213D01*
X128138045Y-76098725D01*
X128471382Y-76501659D01*
X128720104Y-76961662D01*
X128874744Y-77461222D01*
X128930985Y-77996333D01*
X128931002Y-78001112D01*
X128931075Y-78022056D01*
X128932483Y-78035922D01*
X128932386Y-78049856D01*
X128932821Y-78054289D01*
X128994021Y-78636578D01*
X128999841Y-78664930D01*
X129005253Y-78693301D01*
X129006540Y-78697565D01*
X129179677Y-79256879D01*
X129190904Y-79283586D01*
X129201712Y-79310338D01*
X129203801Y-79314267D01*
X129203803Y-79314272D01*
X129203806Y-79314276D01*
X129482279Y-79829303D01*
X129498444Y-79853269D01*
X129514278Y-79877466D01*
X129517093Y-79880917D01*
X129890303Y-80332050D01*
X129910821Y-80352425D01*
X129931047Y-80373080D01*
X129934479Y-80375919D01*
X130388208Y-80745971D01*
X130412297Y-80761976D01*
X130436146Y-80778306D01*
X130440056Y-80780420D01*
X130440064Y-80780425D01*
X130440072Y-80780428D01*
X130957028Y-81055299D01*
X130983788Y-81066329D01*
X131010333Y-81077706D01*
X131014582Y-81079021D01*
X131014589Y-81079024D01*
X131014596Y-81079025D01*
X131575096Y-81248250D01*
X131603465Y-81253867D01*
X131631738Y-81259877D01*
X131636168Y-81260343D01*
X132218736Y-81317464D01*
X132234333Y-81319000D01*
X150965667Y-81319000D01*
X150966222Y-81318945D01*
X150972056Y-81318925D01*
X150985922Y-81317517D01*
X150999856Y-81317614D01*
X151004289Y-81317179D01*
X151586578Y-81255979D01*
X151614930Y-81250159D01*
X151643301Y-81244747D01*
X151647565Y-81243460D01*
X152206879Y-81070323D01*
X152233586Y-81059096D01*
X152260338Y-81048288D01*
X152264267Y-81046199D01*
X152264272Y-81046197D01*
X152264276Y-81046194D01*
X152779303Y-80767721D01*
X152803269Y-80751556D01*
X152827466Y-80735722D01*
X152830917Y-80732907D01*
X153282050Y-80359697D01*
X153302425Y-80339179D01*
X153323080Y-80318953D01*
X153325919Y-80315521D01*
X153695971Y-79861792D01*
X153711976Y-79837703D01*
X153728306Y-79813854D01*
X153730420Y-79809944D01*
X153730425Y-79809936D01*
X153730428Y-79809928D01*
X154005299Y-79292972D01*
X154016329Y-79266212D01*
X154027706Y-79239667D01*
X154029021Y-79235418D01*
X154029024Y-79235411D01*
X154029025Y-79235404D01*
X154198250Y-78674904D01*
X154203867Y-78646535D01*
X154209877Y-78618262D01*
X154210343Y-78613832D01*
X154267465Y-78031255D01*
X154267478Y-78031129D01*
X154321560Y-77479557D01*
X154472707Y-76978931D01*
X154718213Y-76517203D01*
X155048725Y-76111955D01*
X155451659Y-75778618D01*
X155911662Y-75529896D01*
X156411222Y-75375256D01*
X156946333Y-75319015D01*
X156950435Y-75319000D01*
X170595145Y-75329321D01*
X170294970Y-75453657D01*
X169722705Y-75836033D01*
X169236033Y-76322705D01*
X168853657Y-76894970D01*
X168590272Y-77530838D01*
X168456000Y-78205871D01*
X168456000Y-78894129D01*
X168590272Y-79569162D01*
X168853657Y-80205030D01*
X169236033Y-80777295D01*
X169722705Y-81263967D01*
X170294970Y-81646343D01*
X170930838Y-81909728D01*
X171605871Y-82044000D01*
X172294129Y-82044000D01*
X172969162Y-81909728D01*
X173605030Y-81646343D01*
X174177295Y-81263967D01*
X174663967Y-80777295D01*
X175046343Y-80205030D01*
X175131000Y-80000650D01*
X175131000Y-84304764D01*
X175054028Y-84210972D01*
X174927796Y-84107377D01*
X174783780Y-84030398D01*
X174627512Y-83982995D01*
X174505724Y-83971000D01*
X173594276Y-83971000D01*
X173472488Y-83982995D01*
X173316220Y-84030398D01*
X173172204Y-84107377D01*
X173045972Y-84210972D01*
X172942377Y-84337204D01*
X172865398Y-84481220D01*
X172817995Y-84637488D01*
X172801989Y-84800000D01*
X172817995Y-84962512D01*
X172865398Y-85118780D01*
X172942377Y-85262796D01*
X173045972Y-85389028D01*
X173172204Y-85492623D01*
X173316220Y-85569602D01*
X173472488Y-85617005D01*
X173594276Y-85629000D01*
X174505724Y-85629000D01*
X174627512Y-85617005D01*
X174783780Y-85569602D01*
X174927796Y-85492623D01*
X175054028Y-85389028D01*
X175131000Y-85295236D01*
X175131000Y-91674482D01*
X175057623Y-91537204D01*
X174954028Y-91410972D01*
X174827796Y-91307377D01*
X174683780Y-91230398D01*
X174527512Y-91182995D01*
X174405724Y-91171000D01*
X173494276Y-91171000D01*
X173372488Y-91182995D01*
X173216220Y-91230398D01*
X173072204Y-91307377D01*
X172945972Y-91410972D01*
X172842377Y-91537204D01*
X172765398Y-91681220D01*
X172717995Y-91837488D01*
X172701989Y-92000000D01*
X172717995Y-92162512D01*
X172765398Y-92318780D01*
X172842377Y-92462796D01*
X172945972Y-92589028D01*
X173072204Y-92692623D01*
X173216220Y-92769602D01*
X173372488Y-92817005D01*
X173494276Y-92829000D01*
X174405724Y-92829000D01*
X174527512Y-92817005D01*
X174683780Y-92769602D01*
X174827796Y-92692623D01*
X174954028Y-92589028D01*
X175057623Y-92462796D01*
X175131000Y-92325518D01*
X175131001Y-129399353D01*
X175046343Y-129194970D01*
X174663967Y-128622705D01*
X174177295Y-128136033D01*
X173605030Y-127753657D01*
X172969162Y-127490272D01*
X172294129Y-127356000D01*
X171605871Y-127356000D01*
X170930838Y-127490272D01*
X170294970Y-127753657D01*
X169722705Y-128136033D01*
X169236033Y-128622705D01*
X168853657Y-129194970D01*
X168590272Y-129830838D01*
X168456000Y-130505871D01*
X168456000Y-131194129D01*
X168590272Y-131869162D01*
X168853657Y-132505030D01*
X169236033Y-133077295D01*
X169722705Y-133563967D01*
X170294970Y-133946343D01*
X170499350Y-134031000D01*
X112600650Y-134031000D01*
X112805030Y-133946343D01*
X113377295Y-133563967D01*
X113863967Y-133077295D01*
X114246343Y-132505030D01*
X114509728Y-131869162D01*
X114644000Y-131194129D01*
X114644000Y-130505871D01*
X114509728Y-129830838D01*
X114246343Y-129194970D01*
X113863967Y-128622705D01*
X113377295Y-128136033D01*
X112805030Y-127753657D01*
X112169162Y-127490272D01*
X111494129Y-127356000D01*
X110805871Y-127356000D01*
X110130838Y-127490272D01*
X109494970Y-127753657D01*
X108922705Y-128136033D01*
X108436033Y-128622705D01*
X108053657Y-129194970D01*
X107969000Y-129399350D01*
X107969000Y-119100000D01*
X164204578Y-119100000D01*
X164204578Y-123500000D01*
X164210254Y-123557634D01*
X164227066Y-123613053D01*
X164254366Y-123664128D01*
X164291105Y-123708895D01*
X164335872Y-123745634D01*
X164386947Y-123772934D01*
X164442366Y-123789746D01*
X164500000Y-123795422D01*
X166300000Y-123795422D01*
X166357634Y-123789746D01*
X166413053Y-123772934D01*
X166464128Y-123745634D01*
X166508895Y-123708895D01*
X166545634Y-123664128D01*
X166572934Y-123613053D01*
X166589746Y-123557634D01*
X166595422Y-123500000D01*
X166595422Y-121423000D01*
X169973000Y-121423000D01*
X169973000Y-122523000D01*
X170020573Y-122760012D01*
X170113470Y-122983189D01*
X170248122Y-123183955D01*
X170419354Y-123354594D01*
X170620586Y-123488548D01*
X170844084Y-123580670D01*
X170887536Y-123586547D01*
X171077000Y-123538626D01*
X171077000Y-121423000D01*
X171323000Y-121423000D01*
X171323000Y-123538626D01*
X171512464Y-123586547D01*
X171555916Y-123580670D01*
X171779414Y-123488548D01*
X171980646Y-123354594D01*
X172151878Y-123183955D01*
X172286530Y-122983189D01*
X172379427Y-122760012D01*
X172427000Y-122523000D01*
X172427000Y-121423000D01*
X171323000Y-121423000D01*
X171077000Y-121423000D01*
X169973000Y-121423000D01*
X166595422Y-121423000D01*
X166595422Y-120077000D01*
X169973000Y-120077000D01*
X169973000Y-121177000D01*
X171077000Y-121177000D01*
X171077000Y-119061374D01*
X171323000Y-119061374D01*
X171323000Y-121177000D01*
X172427000Y-121177000D01*
X172427000Y-120077000D01*
X172379427Y-119839988D01*
X172286530Y-119616811D01*
X172151878Y-119416045D01*
X171980646Y-119245406D01*
X171779414Y-119111452D01*
X171555916Y-119019330D01*
X171512464Y-119013453D01*
X171323000Y-119061374D01*
X171077000Y-119061374D01*
X170887536Y-119013453D01*
X170844084Y-119019330D01*
X170620586Y-119111452D01*
X170419354Y-119245406D01*
X170248122Y-119416045D01*
X170113470Y-119616811D01*
X170020573Y-119839988D01*
X169973000Y-120077000D01*
X166595422Y-120077000D01*
X166595422Y-119100000D01*
X166589746Y-119042366D01*
X166572934Y-118986947D01*
X166545634Y-118935872D01*
X166508895Y-118891105D01*
X166464128Y-118854366D01*
X166413053Y-118827066D01*
X166357634Y-118810254D01*
X166300000Y-118804578D01*
X164500000Y-118804578D01*
X164442366Y-118810254D01*
X164386947Y-118827066D01*
X164335872Y-118854366D01*
X164291105Y-118891105D01*
X164254366Y-118935872D01*
X164227066Y-118986947D01*
X164210254Y-119042366D01*
X164204578Y-119100000D01*
X107969000Y-119100000D01*
X107969000Y-116500000D01*
X166100223Y-116500000D01*
X166123276Y-116734065D01*
X166191551Y-116959135D01*
X166302422Y-117166560D01*
X166451630Y-117348370D01*
X166633440Y-117497578D01*
X166840865Y-117608449D01*
X167065935Y-117676724D01*
X167241344Y-117694000D01*
X169558656Y-117694000D01*
X169734065Y-117676724D01*
X169959135Y-117608449D01*
X170166560Y-117497578D01*
X170348370Y-117348370D01*
X170497578Y-117166560D01*
X170608449Y-116959135D01*
X170676724Y-116734065D01*
X170699777Y-116500000D01*
X170676724Y-116265935D01*
X170608449Y-116040865D01*
X170497578Y-115833440D01*
X170348370Y-115651630D01*
X170166560Y-115502422D01*
X169959135Y-115391551D01*
X169734065Y-115323276D01*
X169558656Y-115306000D01*
X167241344Y-115306000D01*
X167065935Y-115323276D01*
X166840865Y-115391551D01*
X166633440Y-115502422D01*
X166451630Y-115651630D01*
X166302422Y-115833440D01*
X166191551Y-116040865D01*
X166123276Y-116265935D01*
X166100223Y-116500000D01*
X107969000Y-116500000D01*
X107969000Y-114225000D01*
X156248530Y-114225000D01*
X156278341Y-114527676D01*
X156366629Y-114818721D01*
X156510000Y-115086950D01*
X156702946Y-115322054D01*
X156938050Y-115515000D01*
X157206279Y-115658371D01*
X157497324Y-115746659D01*
X157800000Y-115776470D01*
X158102676Y-115746659D01*
X158211748Y-115713572D01*
X158495000Y-115741470D01*
X158710310Y-115720264D01*
X158797323Y-115746659D01*
X159100000Y-115776470D01*
X159402676Y-115746659D01*
X159693721Y-115658371D01*
X159961950Y-115515000D01*
X160197055Y-115322055D01*
X160390000Y-115086951D01*
X160533371Y-114818722D01*
X160621659Y-114527677D01*
X160644000Y-114300844D01*
X160644000Y-114224546D01*
X161488145Y-113380401D01*
X161547055Y-113332055D01*
X161672942Y-113178662D01*
X161740000Y-113096951D01*
X161883371Y-112828722D01*
X161971659Y-112537677D01*
X162001470Y-112235000D01*
X161994000Y-112159156D01*
X161994000Y-103694000D01*
X165274975Y-103694000D01*
X165648711Y-103657190D01*
X166128257Y-103511722D01*
X166570209Y-103275493D01*
X166957583Y-102957583D01*
X167275493Y-102570209D01*
X167511722Y-102128257D01*
X167657190Y-101648711D01*
X167706309Y-101150000D01*
X167657190Y-100651289D01*
X167511722Y-100171743D01*
X167275493Y-99729791D01*
X166957583Y-99342417D01*
X166570209Y-99024507D01*
X166128257Y-98788278D01*
X165648711Y-98642810D01*
X165274975Y-98606000D01*
X161825025Y-98606000D01*
X161451289Y-98642810D01*
X160971743Y-98788278D01*
X160952164Y-98798743D01*
X160949999Y-98798530D01*
X160647323Y-98828341D01*
X160356278Y-98916629D01*
X160088049Y-99060000D01*
X159911856Y-99204598D01*
X158059542Y-101056913D01*
X158000625Y-101105265D01*
X157837261Y-101304325D01*
X157807680Y-101340370D01*
X157664309Y-101608599D01*
X157576021Y-101899644D01*
X157546210Y-102202320D01*
X157553680Y-102278165D01*
X157553681Y-105533179D01*
X157560552Y-105602945D01*
X157556001Y-105649156D01*
X157556000Y-112285455D01*
X156654598Y-113186857D01*
X156510000Y-113363050D01*
X156366629Y-113631279D01*
X156278341Y-113922324D01*
X156248530Y-114225000D01*
X107969000Y-114225000D01*
X107969000Y-111106647D01*
X143331000Y-111106647D01*
X143331000Y-111243353D01*
X143357670Y-111377432D01*
X143409985Y-111503732D01*
X143485935Y-111617399D01*
X143582601Y-111714065D01*
X143647500Y-111757429D01*
X143647501Y-112150469D01*
X143632601Y-112160425D01*
X143535935Y-112257091D01*
X143459985Y-112370758D01*
X143407670Y-112497058D01*
X143381000Y-112631137D01*
X143381000Y-112767843D01*
X143407670Y-112901922D01*
X143459985Y-113028222D01*
X143535935Y-113141889D01*
X143632601Y-113238555D01*
X143746268Y-113314505D01*
X143872568Y-113366820D01*
X144006647Y-113393490D01*
X144143353Y-113393490D01*
X144277432Y-113366820D01*
X144403732Y-113314505D01*
X144517399Y-113238555D01*
X144572276Y-113183678D01*
X144582670Y-113235932D01*
X144634985Y-113362232D01*
X144710935Y-113475899D01*
X144807601Y-113572565D01*
X144921268Y-113648515D01*
X145047568Y-113700830D01*
X145181647Y-113727500D01*
X145318353Y-113727500D01*
X145452432Y-113700830D01*
X145578732Y-113648515D01*
X145692399Y-113572565D01*
X145789065Y-113475899D01*
X145865015Y-113362232D01*
X145917330Y-113235932D01*
X145944000Y-113101853D01*
X145944000Y-112965147D01*
X145917330Y-112831068D01*
X145865015Y-112704768D01*
X145789065Y-112591101D01*
X145692399Y-112494435D01*
X145578732Y-112418485D01*
X145502500Y-112386909D01*
X145502500Y-111432429D01*
X145567399Y-111389065D01*
X145664065Y-111292399D01*
X145740015Y-111178732D01*
X145792330Y-111052432D01*
X145819000Y-110918353D01*
X145819000Y-110781647D01*
X145792330Y-110647568D01*
X145740015Y-110521268D01*
X145664065Y-110407601D01*
X145567399Y-110310935D01*
X145453732Y-110234985D01*
X145327432Y-110182670D01*
X145193353Y-110156000D01*
X145056647Y-110156000D01*
X144922568Y-110182670D01*
X144796268Y-110234985D01*
X144682601Y-110310935D01*
X144585935Y-110407601D01*
X144509985Y-110521268D01*
X144463553Y-110633365D01*
X144353732Y-110559985D01*
X144227432Y-110507670D01*
X144093353Y-110481000D01*
X143956647Y-110481000D01*
X143822568Y-110507670D01*
X143696268Y-110559985D01*
X143582601Y-110635935D01*
X143485935Y-110732601D01*
X143409985Y-110846268D01*
X143357670Y-110972568D01*
X143331000Y-111106647D01*
X107969000Y-111106647D01*
X107969000Y-103981647D01*
X152781000Y-103981647D01*
X152781000Y-104118353D01*
X152807670Y-104252432D01*
X152859985Y-104378732D01*
X152935935Y-104492399D01*
X153032601Y-104589065D01*
X153097501Y-104632430D01*
X153097500Y-107092571D01*
X153032601Y-107135935D01*
X152935935Y-107232601D01*
X152859985Y-107346268D01*
X152807670Y-107472568D01*
X152781000Y-107606647D01*
X152781000Y-107743353D01*
X152807670Y-107877432D01*
X152859985Y-108003732D01*
X152935935Y-108117399D01*
X153032601Y-108214065D01*
X153146268Y-108290015D01*
X153272568Y-108342330D01*
X153406647Y-108369000D01*
X153543353Y-108369000D01*
X153661404Y-108345518D01*
X153682670Y-108452432D01*
X153734985Y-108578732D01*
X153810935Y-108692399D01*
X153907601Y-108789065D01*
X154021268Y-108865015D01*
X154147568Y-108917330D01*
X154281647Y-108944000D01*
X154418353Y-108944000D01*
X154552432Y-108917330D01*
X154678732Y-108865015D01*
X154792399Y-108789065D01*
X154889065Y-108692399D01*
X154965015Y-108578732D01*
X155017330Y-108452432D01*
X155044000Y-108318353D01*
X155044000Y-108181647D01*
X155017330Y-108047568D01*
X154965015Y-107921268D01*
X154889065Y-107807601D01*
X154792399Y-107710935D01*
X154727500Y-107667571D01*
X154727500Y-105432429D01*
X154792399Y-105389065D01*
X154889065Y-105292399D01*
X154965015Y-105178732D01*
X155017330Y-105052432D01*
X155044000Y-104918353D01*
X155044000Y-104781647D01*
X155017330Y-104647568D01*
X154965015Y-104521268D01*
X154889065Y-104407601D01*
X154792399Y-104310935D01*
X154678732Y-104234985D01*
X154552432Y-104182670D01*
X154418353Y-104156000D01*
X154281647Y-104156000D01*
X154156562Y-104180881D01*
X154169000Y-104118353D01*
X154169000Y-103981647D01*
X154142330Y-103847568D01*
X154090015Y-103721268D01*
X154014065Y-103607601D01*
X153917399Y-103510935D01*
X153803732Y-103434985D01*
X153677432Y-103382670D01*
X153543353Y-103356000D01*
X153406647Y-103356000D01*
X153272568Y-103382670D01*
X153146268Y-103434985D01*
X153032601Y-103510935D01*
X152935935Y-103607601D01*
X152859985Y-103721268D01*
X152807670Y-103847568D01*
X152781000Y-103981647D01*
X107969000Y-103981647D01*
X107969000Y-96131649D01*
X147706000Y-96131649D01*
X147706000Y-96268355D01*
X147732670Y-96402434D01*
X147784985Y-96528734D01*
X147860935Y-96642401D01*
X147957601Y-96739067D01*
X148071268Y-96815017D01*
X148197568Y-96867332D01*
X148331647Y-96894002D01*
X148468353Y-96894002D01*
X148544908Y-96878774D01*
X149272501Y-97606368D01*
X149272500Y-102667571D01*
X149207601Y-102710935D01*
X149110935Y-102807601D01*
X149034985Y-102921268D01*
X148982670Y-103047568D01*
X148956000Y-103181647D01*
X148956000Y-103318353D01*
X148982670Y-103452432D01*
X149034985Y-103578732D01*
X149110935Y-103692399D01*
X149207601Y-103789065D01*
X149321268Y-103865015D01*
X149447568Y-103917330D01*
X149581647Y-103944000D01*
X149718353Y-103944000D01*
X149852432Y-103917330D01*
X149978732Y-103865015D01*
X150092399Y-103789065D01*
X150189065Y-103692399D01*
X150265015Y-103578732D01*
X150317330Y-103452432D01*
X150344000Y-103318353D01*
X150344000Y-103181647D01*
X150317330Y-103047568D01*
X150265015Y-102921268D01*
X150189065Y-102807601D01*
X150092399Y-102710935D01*
X150027500Y-102667571D01*
X150027500Y-97468541D01*
X150029326Y-97450002D01*
X150025056Y-97406647D01*
X150681000Y-97406647D01*
X150681000Y-97543353D01*
X150707670Y-97677432D01*
X150759985Y-97803732D01*
X150835935Y-97917399D01*
X150932601Y-98014065D01*
X150997500Y-98057429D01*
X150997501Y-100577537D01*
X150984985Y-100596268D01*
X150932670Y-100722568D01*
X150906000Y-100856647D01*
X150906000Y-100993353D01*
X150932670Y-101127432D01*
X150984985Y-101253732D01*
X151060935Y-101367399D01*
X151157601Y-101464065D01*
X151271268Y-101540015D01*
X151397568Y-101592330D01*
X151531647Y-101619000D01*
X151668353Y-101619000D01*
X151802432Y-101592330D01*
X151928732Y-101540015D01*
X152042399Y-101464065D01*
X152139065Y-101367399D01*
X152215015Y-101253732D01*
X152267330Y-101127432D01*
X152294000Y-100993353D01*
X152294000Y-100856647D01*
X152267330Y-100722568D01*
X152215015Y-100596268D01*
X152139065Y-100482601D01*
X152042399Y-100385935D01*
X151928732Y-100309985D01*
X151802432Y-100257670D01*
X151752500Y-100247738D01*
X151752500Y-98057429D01*
X151817399Y-98014065D01*
X151914065Y-97917399D01*
X151990015Y-97803732D01*
X152042330Y-97677432D01*
X152069000Y-97543353D01*
X152069000Y-97406647D01*
X152042330Y-97272568D01*
X151990015Y-97146268D01*
X151914065Y-97032601D01*
X151817399Y-96935935D01*
X151703732Y-96859985D01*
X151577432Y-96807670D01*
X151443353Y-96781000D01*
X151306647Y-96781000D01*
X151172568Y-96807670D01*
X151046268Y-96859985D01*
X150932601Y-96935935D01*
X150835935Y-97032601D01*
X150759985Y-97146268D01*
X150707670Y-97272568D01*
X150681000Y-97406647D01*
X150025056Y-97406647D01*
X150022037Y-97375999D01*
X150000452Y-97304840D01*
X149965398Y-97239260D01*
X149918224Y-97181778D01*
X149903820Y-97169957D01*
X149078772Y-96344910D01*
X149094000Y-96268355D01*
X149094000Y-96131649D01*
X149067330Y-95997570D01*
X149015015Y-95871270D01*
X148939065Y-95757603D01*
X148842399Y-95660937D01*
X148728732Y-95584987D01*
X148602432Y-95532672D01*
X148468353Y-95506002D01*
X148331647Y-95506002D01*
X148197568Y-95532672D01*
X148071268Y-95584987D01*
X147957601Y-95660937D01*
X147860935Y-95757603D01*
X147784985Y-95871270D01*
X147732670Y-95997570D01*
X147706000Y-96131649D01*
X107969000Y-96131649D01*
X107969000Y-90707024D01*
X170106000Y-90707024D01*
X170106000Y-90892976D01*
X170142277Y-91075355D01*
X170213438Y-91247152D01*
X170316747Y-91401765D01*
X170448235Y-91533253D01*
X170602848Y-91636562D01*
X170774645Y-91707723D01*
X170957024Y-91744000D01*
X171142976Y-91744000D01*
X171325355Y-91707723D01*
X171497152Y-91636562D01*
X171651765Y-91533253D01*
X171783253Y-91401765D01*
X171886562Y-91247152D01*
X171957723Y-91075355D01*
X171994000Y-90892976D01*
X171994000Y-90707024D01*
X171957723Y-90524645D01*
X171886562Y-90352848D01*
X171783253Y-90198235D01*
X171651765Y-90066747D01*
X171497152Y-89963438D01*
X171325355Y-89892277D01*
X171142976Y-89856000D01*
X170957024Y-89856000D01*
X170774645Y-89892277D01*
X170602848Y-89963438D01*
X170448235Y-90066747D01*
X170316747Y-90198235D01*
X170213438Y-90352848D01*
X170142277Y-90524645D01*
X170106000Y-90707024D01*
X107969000Y-90707024D01*
X107969000Y-85291496D01*
X135256000Y-85291496D01*
X135256000Y-85408504D01*
X135278827Y-85523263D01*
X135323604Y-85631364D01*
X135388610Y-85728653D01*
X135471347Y-85811390D01*
X135568636Y-85876396D01*
X135676737Y-85921173D01*
X135791496Y-85944000D01*
X135908504Y-85944000D01*
X136023263Y-85921173D01*
X136131364Y-85876396D01*
X136228653Y-85811390D01*
X136311390Y-85728653D01*
X136312160Y-85727500D01*
X159439338Y-85727500D01*
X159421268Y-85734985D01*
X159307601Y-85810935D01*
X159210935Y-85907601D01*
X159134985Y-86021268D01*
X159082670Y-86147568D01*
X159056000Y-86281647D01*
X159056000Y-86418353D01*
X159082670Y-86552432D01*
X159134985Y-86678732D01*
X159210935Y-86792399D01*
X159307601Y-86889065D01*
X159356000Y-86921404D01*
X159356001Y-87778595D01*
X159307601Y-87810935D01*
X159210935Y-87907601D01*
X159134985Y-88021268D01*
X159082670Y-88147568D01*
X159056000Y-88281647D01*
X159056000Y-88418353D01*
X159082670Y-88552432D01*
X159134985Y-88678732D01*
X159210935Y-88792399D01*
X159307601Y-88889065D01*
X159421268Y-88965015D01*
X159547568Y-89017330D01*
X159681647Y-89044000D01*
X159818353Y-89044000D01*
X159952432Y-89017330D01*
X160078732Y-88965015D01*
X160192399Y-88889065D01*
X160289065Y-88792399D01*
X160365015Y-88678732D01*
X160417330Y-88552432D01*
X160444000Y-88418353D01*
X160444000Y-88281647D01*
X160417330Y-88147568D01*
X160365015Y-88021268D01*
X160289065Y-87907601D01*
X160192399Y-87810935D01*
X160144000Y-87778596D01*
X160144000Y-86921404D01*
X160192399Y-86889065D01*
X160289065Y-86792399D01*
X160365015Y-86678732D01*
X160417330Y-86552432D01*
X160444000Y-86418353D01*
X160444000Y-86281647D01*
X160417330Y-86147568D01*
X160365015Y-86021268D01*
X160289065Y-85907601D01*
X160192399Y-85810935D01*
X160078732Y-85734985D01*
X160060662Y-85727500D01*
X166387840Y-85727500D01*
X166388610Y-85728653D01*
X166471347Y-85811390D01*
X166568636Y-85876396D01*
X166676737Y-85921173D01*
X166791496Y-85944000D01*
X166908504Y-85944000D01*
X167023263Y-85921173D01*
X167057421Y-85907024D01*
X170106000Y-85907024D01*
X170106000Y-86092976D01*
X170142277Y-86275355D01*
X170213438Y-86447152D01*
X170316747Y-86601765D01*
X170448235Y-86733253D01*
X170602848Y-86836562D01*
X170774645Y-86907723D01*
X170957024Y-86944000D01*
X171142976Y-86944000D01*
X171325355Y-86907723D01*
X171497152Y-86836562D01*
X171651765Y-86733253D01*
X171783253Y-86601765D01*
X171886562Y-86447152D01*
X171957723Y-86275355D01*
X171994000Y-86092976D01*
X171994000Y-85907024D01*
X171957723Y-85724645D01*
X171886562Y-85552848D01*
X171783253Y-85398235D01*
X171651765Y-85266747D01*
X171497152Y-85163438D01*
X171325355Y-85092277D01*
X171142976Y-85056000D01*
X170957024Y-85056000D01*
X170774645Y-85092277D01*
X170602848Y-85163438D01*
X170448235Y-85266747D01*
X170316747Y-85398235D01*
X170213438Y-85552848D01*
X170142277Y-85724645D01*
X170106000Y-85907024D01*
X167057421Y-85907024D01*
X167131364Y-85876396D01*
X167228653Y-85811390D01*
X167311390Y-85728653D01*
X167376396Y-85631364D01*
X167421173Y-85523263D01*
X167444000Y-85408504D01*
X167444000Y-85291496D01*
X167421173Y-85176737D01*
X167376396Y-85068636D01*
X167311390Y-84971347D01*
X167228653Y-84888610D01*
X167131364Y-84823604D01*
X167023263Y-84778827D01*
X166908504Y-84756000D01*
X166791496Y-84756000D01*
X166676737Y-84778827D01*
X166568636Y-84823604D01*
X166471347Y-84888610D01*
X166388610Y-84971347D01*
X166387840Y-84972500D01*
X136312160Y-84972500D01*
X136311390Y-84971347D01*
X136228653Y-84888610D01*
X136131364Y-84823604D01*
X136023263Y-84778827D01*
X135908504Y-84756000D01*
X135791496Y-84756000D01*
X135676737Y-84778827D01*
X135568636Y-84823604D01*
X135471347Y-84888610D01*
X135388610Y-84971347D01*
X135323604Y-85068636D01*
X135278827Y-85176737D01*
X135256000Y-85291496D01*
X107969000Y-85291496D01*
X107969000Y-80100650D01*
X108053657Y-80305030D01*
X108436033Y-80877295D01*
X108922705Y-81363967D01*
X109494970Y-81746343D01*
X110130838Y-82009728D01*
X110805871Y-82144000D01*
X111494129Y-82144000D01*
X112169162Y-82009728D01*
X112805030Y-81746343D01*
X113377295Y-81363967D01*
X113863967Y-80877295D01*
X114246343Y-80305030D01*
X114509728Y-79669162D01*
X114644000Y-78994129D01*
X114644000Y-78305871D01*
X114509728Y-77630838D01*
X114246343Y-76994970D01*
X113863967Y-76422705D01*
X113377295Y-75936033D01*
X112805030Y-75553657D01*
X112238518Y-75319000D01*
X126234394Y-75319000D01*
X126770443Y-75371560D01*
G37*
G04 #@! TD.AperFunction*
M02*
