G04 #@! TF.GenerationSoftware,KiCad,Pcbnew,(5.1.10-1-10_14)*
G04 #@! TF.CreationDate,2021-09-03T22:36:36+10:00*
G04 #@! TF.ProjectId,esp32_smart_keezer,65737033-325f-4736-9d61-72745f6b6565,1*
G04 #@! TF.SameCoordinates,Original*
G04 #@! TF.FileFunction,Paste,Top*
G04 #@! TF.FilePolarity,Positive*
%FSLAX46Y46*%
G04 Gerber Fmt 4.6, Leading zero omitted, Abs format (unit mm)*
G04 Created by KiCad (PCBNEW (5.1.10-1-10_14)) date 2021-09-03 22:36:36*
%MOMM*%
%LPD*%
G01*
G04 APERTURE LIST*
%ADD10C,1.300000*%
%ADD11O,1.600000X0.850000*%
%ADD12R,1.350000X0.600000*%
%ADD13R,1.250000X0.400000*%
%ADD14R,5.000000X5.000000*%
%ADD15R,2.000000X0.900000*%
%ADD16R,0.900000X2.000000*%
%ADD17R,1.400000X1.000000*%
%ADD18R,2.510000X1.000000*%
%ADD19R,1.800000X2.500000*%
%ADD20R,5.100000X2.350000*%
G04 APERTURE END LIST*
D10*
X171050000Y-86000000D03*
X171050000Y-90800000D03*
D11*
X174050000Y-84800000D03*
D12*
X173950000Y-87650000D03*
X173950000Y-89150000D03*
D11*
X173950000Y-92000000D03*
D13*
X171050000Y-87100000D03*
X171050000Y-87750000D03*
X171050000Y-88400000D03*
X171050000Y-89050000D03*
X171050000Y-89700000D03*
G36*
G01*
X130400000Y-86225000D02*
X130900000Y-86225000D01*
G75*
G02*
X131125000Y-86450000I0J-225000D01*
G01*
X131125000Y-86900000D01*
G75*
G02*
X130900000Y-87125000I-225000J0D01*
G01*
X130400000Y-87125000D01*
G75*
G02*
X130175000Y-86900000I0J225000D01*
G01*
X130175000Y-86450000D01*
G75*
G02*
X130400000Y-86225000I225000J0D01*
G01*
G37*
G36*
G01*
X130400000Y-84675000D02*
X130900000Y-84675000D01*
G75*
G02*
X131125000Y-84900000I0J-225000D01*
G01*
X131125000Y-85350000D01*
G75*
G02*
X130900000Y-85575000I-225000J0D01*
G01*
X130400000Y-85575000D01*
G75*
G02*
X130175000Y-85350000I0J225000D01*
G01*
X130175000Y-84900000D01*
G75*
G02*
X130400000Y-84675000I225000J0D01*
G01*
G37*
G36*
G01*
X162150000Y-91425000D02*
X162650000Y-91425000D01*
G75*
G02*
X162875000Y-91650000I0J-225000D01*
G01*
X162875000Y-92100000D01*
G75*
G02*
X162650000Y-92325000I-225000J0D01*
G01*
X162150000Y-92325000D01*
G75*
G02*
X161925000Y-92100000I0J225000D01*
G01*
X161925000Y-91650000D01*
G75*
G02*
X162150000Y-91425000I225000J0D01*
G01*
G37*
G36*
G01*
X162150000Y-92975000D02*
X162650000Y-92975000D01*
G75*
G02*
X162875000Y-93200000I0J-225000D01*
G01*
X162875000Y-93650000D01*
G75*
G02*
X162650000Y-93875000I-225000J0D01*
G01*
X162150000Y-93875000D01*
G75*
G02*
X161925000Y-93650000I0J225000D01*
G01*
X161925000Y-93200000D01*
G75*
G02*
X162150000Y-92975000I225000J0D01*
G01*
G37*
G36*
G01*
X163475000Y-84900000D02*
X163475000Y-84400000D01*
G75*
G02*
X163700000Y-84175000I225000J0D01*
G01*
X164150000Y-84175000D01*
G75*
G02*
X164375000Y-84400000I0J-225000D01*
G01*
X164375000Y-84900000D01*
G75*
G02*
X164150000Y-85125000I-225000J0D01*
G01*
X163700000Y-85125000D01*
G75*
G02*
X163475000Y-84900000I0J225000D01*
G01*
G37*
G36*
G01*
X161925000Y-84900000D02*
X161925000Y-84400000D01*
G75*
G02*
X162150000Y-84175000I225000J0D01*
G01*
X162600000Y-84175000D01*
G75*
G02*
X162825000Y-84400000I0J-225000D01*
G01*
X162825000Y-84900000D01*
G75*
G02*
X162600000Y-85125000I-225000J0D01*
G01*
X162150000Y-85125000D01*
G75*
G02*
X161925000Y-84900000I0J225000D01*
G01*
G37*
G36*
G01*
X125224997Y-82700000D02*
X127075003Y-82700000D01*
G75*
G02*
X127325000Y-82949997I0J-249997D01*
G01*
X127325000Y-83775003D01*
G75*
G02*
X127075003Y-84025000I-249997J0D01*
G01*
X125224997Y-84025000D01*
G75*
G02*
X124975000Y-83775003I0J249997D01*
G01*
X124975000Y-82949997D01*
G75*
G02*
X125224997Y-82700000I249997J0D01*
G01*
G37*
G36*
G01*
X125224997Y-85775000D02*
X127075003Y-85775000D01*
G75*
G02*
X127325000Y-86024997I0J-249997D01*
G01*
X127325000Y-86850003D01*
G75*
G02*
X127075003Y-87100000I-249997J0D01*
G01*
X125224997Y-87100000D01*
G75*
G02*
X124975000Y-86850003I0J249997D01*
G01*
X124975000Y-86024997D01*
G75*
G02*
X125224997Y-85775000I249997J0D01*
G01*
G37*
G36*
G01*
X130900000Y-83875000D02*
X130400000Y-83875000D01*
G75*
G02*
X130175000Y-83650000I0J225000D01*
G01*
X130175000Y-83200000D01*
G75*
G02*
X130400000Y-82975000I225000J0D01*
G01*
X130900000Y-82975000D01*
G75*
G02*
X131125000Y-83200000I0J-225000D01*
G01*
X131125000Y-83650000D01*
G75*
G02*
X130900000Y-83875000I-225000J0D01*
G01*
G37*
G36*
G01*
X130900000Y-82325000D02*
X130400000Y-82325000D01*
G75*
G02*
X130175000Y-82100000I0J225000D01*
G01*
X130175000Y-81650000D01*
G75*
G02*
X130400000Y-81425000I225000J0D01*
G01*
X130900000Y-81425000D01*
G75*
G02*
X131125000Y-81650000I0J-225000D01*
G01*
X131125000Y-82100000D01*
G75*
G02*
X130900000Y-82325000I-225000J0D01*
G01*
G37*
G36*
G01*
X160456250Y-79625000D02*
X159943750Y-79625000D01*
G75*
G02*
X159725000Y-79406250I0J218750D01*
G01*
X159725000Y-78968750D01*
G75*
G02*
X159943750Y-78750000I218750J0D01*
G01*
X160456250Y-78750000D01*
G75*
G02*
X160675000Y-78968750I0J-218750D01*
G01*
X160675000Y-79406250D01*
G75*
G02*
X160456250Y-79625000I-218750J0D01*
G01*
G37*
G36*
G01*
X160456250Y-78050000D02*
X159943750Y-78050000D01*
G75*
G02*
X159725000Y-77831250I0J218750D01*
G01*
X159725000Y-77393750D01*
G75*
G02*
X159943750Y-77175000I218750J0D01*
G01*
X160456250Y-77175000D01*
G75*
G02*
X160675000Y-77393750I0J-218750D01*
G01*
X160675000Y-77831250D01*
G75*
G02*
X160456250Y-78050000I-218750J0D01*
G01*
G37*
G36*
G01*
X165006250Y-79725000D02*
X164493750Y-79725000D01*
G75*
G02*
X164275000Y-79506250I0J218750D01*
G01*
X164275000Y-79068750D01*
G75*
G02*
X164493750Y-78850000I218750J0D01*
G01*
X165006250Y-78850000D01*
G75*
G02*
X165225000Y-79068750I0J-218750D01*
G01*
X165225000Y-79506250D01*
G75*
G02*
X165006250Y-79725000I-218750J0D01*
G01*
G37*
G36*
G01*
X165006250Y-78150000D02*
X164493750Y-78150000D01*
G75*
G02*
X164275000Y-77931250I0J218750D01*
G01*
X164275000Y-77493750D01*
G75*
G02*
X164493750Y-77275000I218750J0D01*
G01*
X165006250Y-77275000D01*
G75*
G02*
X165225000Y-77493750I0J-218750D01*
G01*
X165225000Y-77931250D01*
G75*
G02*
X165006250Y-78150000I-218750J0D01*
G01*
G37*
G36*
G01*
X128625000Y-84825000D02*
X129175000Y-84825000D01*
G75*
G02*
X129375000Y-85025000I0J-200000D01*
G01*
X129375000Y-85425000D01*
G75*
G02*
X129175000Y-85625000I-200000J0D01*
G01*
X128625000Y-85625000D01*
G75*
G02*
X128425000Y-85425000I0J200000D01*
G01*
X128425000Y-85025000D01*
G75*
G02*
X128625000Y-84825000I200000J0D01*
G01*
G37*
G36*
G01*
X128625000Y-83175000D02*
X129175000Y-83175000D01*
G75*
G02*
X129375000Y-83375000I0J-200000D01*
G01*
X129375000Y-83775000D01*
G75*
G02*
X129175000Y-83975000I-200000J0D01*
G01*
X128625000Y-83975000D01*
G75*
G02*
X128425000Y-83775000I0J200000D01*
G01*
X128425000Y-83375000D01*
G75*
G02*
X128625000Y-83175000I200000J0D01*
G01*
G37*
G36*
G01*
X159925000Y-82175000D02*
X160475000Y-82175000D01*
G75*
G02*
X160675000Y-82375000I0J-200000D01*
G01*
X160675000Y-82775000D01*
G75*
G02*
X160475000Y-82975000I-200000J0D01*
G01*
X159925000Y-82975000D01*
G75*
G02*
X159725000Y-82775000I0J200000D01*
G01*
X159725000Y-82375000D01*
G75*
G02*
X159925000Y-82175000I200000J0D01*
G01*
G37*
G36*
G01*
X159925000Y-80525000D02*
X160475000Y-80525000D01*
G75*
G02*
X160675000Y-80725000I0J-200000D01*
G01*
X160675000Y-81125000D01*
G75*
G02*
X160475000Y-81325000I-200000J0D01*
G01*
X159925000Y-81325000D01*
G75*
G02*
X159725000Y-81125000I0J200000D01*
G01*
X159725000Y-80725000D01*
G75*
G02*
X159925000Y-80525000I200000J0D01*
G01*
G37*
G36*
G01*
X164475000Y-80625000D02*
X165025000Y-80625000D01*
G75*
G02*
X165225000Y-80825000I0J-200000D01*
G01*
X165225000Y-81225000D01*
G75*
G02*
X165025000Y-81425000I-200000J0D01*
G01*
X164475000Y-81425000D01*
G75*
G02*
X164275000Y-81225000I0J200000D01*
G01*
X164275000Y-80825000D01*
G75*
G02*
X164475000Y-80625000I200000J0D01*
G01*
G37*
G36*
G01*
X164475000Y-82275000D02*
X165025000Y-82275000D01*
G75*
G02*
X165225000Y-82475000I0J-200000D01*
G01*
X165225000Y-82875000D01*
G75*
G02*
X165025000Y-83075000I-200000J0D01*
G01*
X164475000Y-83075000D01*
G75*
G02*
X164275000Y-82875000I0J200000D01*
G01*
X164275000Y-82475000D01*
G75*
G02*
X164475000Y-82275000I200000J0D01*
G01*
G37*
G36*
G01*
X130325000Y-98925000D02*
X130325000Y-98375000D01*
G75*
G02*
X130525000Y-98175000I200000J0D01*
G01*
X130925000Y-98175000D01*
G75*
G02*
X131125000Y-98375000I0J-200000D01*
G01*
X131125000Y-98925000D01*
G75*
G02*
X130925000Y-99125000I-200000J0D01*
G01*
X130525000Y-99125000D01*
G75*
G02*
X130325000Y-98925000I0J200000D01*
G01*
G37*
G36*
G01*
X128675000Y-98925000D02*
X128675000Y-98375000D01*
G75*
G02*
X128875000Y-98175000I200000J0D01*
G01*
X129275000Y-98175000D01*
G75*
G02*
X129475000Y-98375000I0J-200000D01*
G01*
X129475000Y-98925000D01*
G75*
G02*
X129275000Y-99125000I-200000J0D01*
G01*
X128875000Y-99125000D01*
G75*
G02*
X128675000Y-98925000I0J200000D01*
G01*
G37*
G36*
G01*
X155600000Y-98375000D02*
X155600000Y-98925000D01*
G75*
G02*
X155400000Y-99125000I-200000J0D01*
G01*
X155000000Y-99125000D01*
G75*
G02*
X154800000Y-98925000I0J200000D01*
G01*
X154800000Y-98375000D01*
G75*
G02*
X155000000Y-98175000I200000J0D01*
G01*
X155400000Y-98175000D01*
G75*
G02*
X155600000Y-98375000I0J-200000D01*
G01*
G37*
G36*
G01*
X153950000Y-98375000D02*
X153950000Y-98925000D01*
G75*
G02*
X153750000Y-99125000I-200000J0D01*
G01*
X153350000Y-99125000D01*
G75*
G02*
X153150000Y-98925000I0J200000D01*
G01*
X153150000Y-98375000D01*
G75*
G02*
X153350000Y-98175000I200000J0D01*
G01*
X153750000Y-98175000D01*
G75*
G02*
X153950000Y-98375000I0J-200000D01*
G01*
G37*
D14*
X140625000Y-89720000D03*
D15*
X133125000Y-82220000D03*
X133125000Y-83490000D03*
X133125000Y-84760000D03*
X133125000Y-86030000D03*
X133125000Y-87300000D03*
X133125000Y-88570000D03*
X133125000Y-89840000D03*
X133125000Y-91110000D03*
X133125000Y-92380000D03*
X133125000Y-93650000D03*
X133125000Y-94920000D03*
X133125000Y-96190000D03*
X133125000Y-97460000D03*
X133125000Y-98730000D03*
D16*
X135910000Y-99730000D03*
X137180000Y-99730000D03*
X138450000Y-99730000D03*
X139720000Y-99730000D03*
X140990000Y-99730000D03*
X142260000Y-99730000D03*
X143530000Y-99730000D03*
X144800000Y-99730000D03*
X146070000Y-99730000D03*
X147340000Y-99730000D03*
D15*
X150125000Y-98730000D03*
X150125000Y-97460000D03*
X150125000Y-96190000D03*
X150125000Y-94920000D03*
X150125000Y-93650000D03*
X150125000Y-92380000D03*
X150125000Y-91110000D03*
X150125000Y-89840000D03*
X150125000Y-88570000D03*
X150125000Y-87300000D03*
X150125000Y-86030000D03*
X150125000Y-84760000D03*
X150125000Y-83490000D03*
X150125000Y-82220000D03*
G36*
G01*
X118825000Y-93275000D02*
X118275000Y-93275000D01*
G75*
G02*
X118075000Y-93075000I0J200000D01*
G01*
X118075000Y-92675000D01*
G75*
G02*
X118275000Y-92475000I200000J0D01*
G01*
X118825000Y-92475000D01*
G75*
G02*
X119025000Y-92675000I0J-200000D01*
G01*
X119025000Y-93075000D01*
G75*
G02*
X118825000Y-93275000I-200000J0D01*
G01*
G37*
G36*
G01*
X118825000Y-91625000D02*
X118275000Y-91625000D01*
G75*
G02*
X118075000Y-91425000I0J200000D01*
G01*
X118075000Y-91025000D01*
G75*
G02*
X118275000Y-90825000I200000J0D01*
G01*
X118825000Y-90825000D01*
G75*
G02*
X119025000Y-91025000I0J-200000D01*
G01*
X119025000Y-91425000D01*
G75*
G02*
X118825000Y-91625000I-200000J0D01*
G01*
G37*
D17*
X116650000Y-92850000D03*
X110350000Y-92850000D03*
X110350000Y-95850000D03*
X116650000Y-95850000D03*
X158950000Y-96250000D03*
X152650000Y-96250000D03*
X152650000Y-93250000D03*
X158950000Y-93250000D03*
X126800000Y-92850000D03*
X120500000Y-92850000D03*
X120500000Y-95850000D03*
X126800000Y-95850000D03*
G36*
G01*
X168350000Y-89905000D02*
X168350000Y-90205000D01*
G75*
G02*
X168200000Y-90355000I-150000J0D01*
G01*
X166550000Y-90355000D01*
G75*
G02*
X166400000Y-90205000I0J150000D01*
G01*
X166400000Y-89905000D01*
G75*
G02*
X166550000Y-89755000I150000J0D01*
G01*
X168200000Y-89755000D01*
G75*
G02*
X168350000Y-89905000I0J-150000D01*
G01*
G37*
G36*
G01*
X168350000Y-88635000D02*
X168350000Y-88935000D01*
G75*
G02*
X168200000Y-89085000I-150000J0D01*
G01*
X166550000Y-89085000D01*
G75*
G02*
X166400000Y-88935000I0J150000D01*
G01*
X166400000Y-88635000D01*
G75*
G02*
X166550000Y-88485000I150000J0D01*
G01*
X168200000Y-88485000D01*
G75*
G02*
X168350000Y-88635000I0J-150000D01*
G01*
G37*
G36*
G01*
X168350000Y-87365000D02*
X168350000Y-87665000D01*
G75*
G02*
X168200000Y-87815000I-150000J0D01*
G01*
X166550000Y-87815000D01*
G75*
G02*
X166400000Y-87665000I0J150000D01*
G01*
X166400000Y-87365000D01*
G75*
G02*
X166550000Y-87215000I150000J0D01*
G01*
X168200000Y-87215000D01*
G75*
G02*
X168350000Y-87365000I0J-150000D01*
G01*
G37*
G36*
G01*
X168350000Y-86095000D02*
X168350000Y-86395000D01*
G75*
G02*
X168200000Y-86545000I-150000J0D01*
G01*
X166550000Y-86545000D01*
G75*
G02*
X166400000Y-86395000I0J150000D01*
G01*
X166400000Y-86095000D01*
G75*
G02*
X166550000Y-85945000I150000J0D01*
G01*
X168200000Y-85945000D01*
G75*
G02*
X168350000Y-86095000I0J-150000D01*
G01*
G37*
G36*
G01*
X163400000Y-86095000D02*
X163400000Y-86395000D01*
G75*
G02*
X163250000Y-86545000I-150000J0D01*
G01*
X161600000Y-86545000D01*
G75*
G02*
X161450000Y-86395000I0J150000D01*
G01*
X161450000Y-86095000D01*
G75*
G02*
X161600000Y-85945000I150000J0D01*
G01*
X163250000Y-85945000D01*
G75*
G02*
X163400000Y-86095000I0J-150000D01*
G01*
G37*
G36*
G01*
X163400000Y-87365000D02*
X163400000Y-87665000D01*
G75*
G02*
X163250000Y-87815000I-150000J0D01*
G01*
X161600000Y-87815000D01*
G75*
G02*
X161450000Y-87665000I0J150000D01*
G01*
X161450000Y-87365000D01*
G75*
G02*
X161600000Y-87215000I150000J0D01*
G01*
X163250000Y-87215000D01*
G75*
G02*
X163400000Y-87365000I0J-150000D01*
G01*
G37*
G36*
G01*
X163400000Y-88635000D02*
X163400000Y-88935000D01*
G75*
G02*
X163250000Y-89085000I-150000J0D01*
G01*
X161600000Y-89085000D01*
G75*
G02*
X161450000Y-88935000I0J150000D01*
G01*
X161450000Y-88635000D01*
G75*
G02*
X161600000Y-88485000I150000J0D01*
G01*
X163250000Y-88485000D01*
G75*
G02*
X163400000Y-88635000I0J-150000D01*
G01*
G37*
G36*
G01*
X163400000Y-89905000D02*
X163400000Y-90205000D01*
G75*
G02*
X163250000Y-90355000I-150000J0D01*
G01*
X161600000Y-90355000D01*
G75*
G02*
X161450000Y-90205000I0J150000D01*
G01*
X161450000Y-89905000D01*
G75*
G02*
X161600000Y-89755000I150000J0D01*
G01*
X163250000Y-89755000D01*
G75*
G02*
X163400000Y-89905000I0J-150000D01*
G01*
G37*
D18*
X118495000Y-109110000D03*
X118495000Y-114190000D03*
X121805000Y-111650000D03*
X131805000Y-111650000D03*
X128495000Y-114190000D03*
X128495000Y-109110000D03*
X138495000Y-109110000D03*
X138495000Y-114190000D03*
X141805000Y-111650000D03*
X151805000Y-111650000D03*
X148495000Y-114190000D03*
X148495000Y-109110000D03*
X158495000Y-109110000D03*
X158495000Y-114190000D03*
X161805000Y-111650000D03*
X118495000Y-121660000D03*
X118495000Y-126740000D03*
X121805000Y-124200000D03*
X131805000Y-124200000D03*
X128495000Y-126740000D03*
X128495000Y-121660000D03*
X138495000Y-121660000D03*
X138495000Y-126740000D03*
X141805000Y-124200000D03*
X151805000Y-124200000D03*
X148495000Y-126740000D03*
X148495000Y-121660000D03*
X161805000Y-124200000D03*
X158495000Y-126740000D03*
X158495000Y-121660000D03*
D19*
X165850000Y-96700000D03*
X165850000Y-92700000D03*
G36*
G01*
X171100000Y-93350000D02*
X172200000Y-93350000D01*
G75*
G02*
X172450000Y-93600000I0J-250000D01*
G01*
X172450000Y-96425000D01*
G75*
G02*
X172200000Y-96675000I-250000J0D01*
G01*
X171100000Y-96675000D01*
G75*
G02*
X170850000Y-96425000I0J250000D01*
G01*
X170850000Y-93600000D01*
G75*
G02*
X171100000Y-93350000I250000J0D01*
G01*
G37*
G36*
G01*
X171100000Y-98425000D02*
X172200000Y-98425000D01*
G75*
G02*
X172450000Y-98675000I0J-250000D01*
G01*
X172450000Y-101500000D01*
G75*
G02*
X172200000Y-101750000I-250000J0D01*
G01*
X171100000Y-101750000D01*
G75*
G02*
X170850000Y-101500000I0J250000D01*
G01*
X170850000Y-98675000D01*
G75*
G02*
X171100000Y-98425000I250000J0D01*
G01*
G37*
G36*
G01*
X169425000Y-103600000D02*
X169425000Y-103100000D01*
G75*
G02*
X169650000Y-102875000I225000J0D01*
G01*
X170100000Y-102875000D01*
G75*
G02*
X170325000Y-103100000I0J-225000D01*
G01*
X170325000Y-103600000D01*
G75*
G02*
X170100000Y-103825000I-225000J0D01*
G01*
X169650000Y-103825000D01*
G75*
G02*
X169425000Y-103600000I0J225000D01*
G01*
G37*
G36*
G01*
X170975000Y-103600000D02*
X170975000Y-103100000D01*
G75*
G02*
X171200000Y-102875000I225000J0D01*
G01*
X171650000Y-102875000D01*
G75*
G02*
X171875000Y-103100000I0J-225000D01*
G01*
X171875000Y-103600000D01*
G75*
G02*
X171650000Y-103825000I-225000J0D01*
G01*
X171200000Y-103825000D01*
G75*
G02*
X170975000Y-103600000I0J225000D01*
G01*
G37*
G36*
G01*
X162575003Y-98950000D02*
X160724997Y-98950000D01*
G75*
G02*
X160475000Y-98700003I0J249997D01*
G01*
X160475000Y-97874997D01*
G75*
G02*
X160724997Y-97625000I249997J0D01*
G01*
X162575003Y-97625000D01*
G75*
G02*
X162825000Y-97874997I0J-249997D01*
G01*
X162825000Y-98700003D01*
G75*
G02*
X162575003Y-98950000I-249997J0D01*
G01*
G37*
G36*
G01*
X162575003Y-95875000D02*
X160724997Y-95875000D01*
G75*
G02*
X160475000Y-95625003I0J249997D01*
G01*
X160475000Y-94799997D01*
G75*
G02*
X160724997Y-94550000I249997J0D01*
G01*
X162575003Y-94550000D01*
G75*
G02*
X162825000Y-94799997I0J-249997D01*
G01*
X162825000Y-95625003D01*
G75*
G02*
X162575003Y-95875000I-249997J0D01*
G01*
G37*
X165650000Y-104150000D03*
X165650000Y-100150000D03*
D20*
X160050000Y-105625000D03*
X160050000Y-101475000D03*
G36*
G01*
X171075000Y-110875000D02*
X171075000Y-111425000D01*
G75*
G02*
X170875000Y-111625000I-200000J0D01*
G01*
X170475000Y-111625000D01*
G75*
G02*
X170275000Y-111425000I0J200000D01*
G01*
X170275000Y-110875000D01*
G75*
G02*
X170475000Y-110675000I200000J0D01*
G01*
X170875000Y-110675000D01*
G75*
G02*
X171075000Y-110875000I0J-200000D01*
G01*
G37*
G36*
G01*
X169425000Y-110875000D02*
X169425000Y-111425000D01*
G75*
G02*
X169225000Y-111625000I-200000J0D01*
G01*
X168825000Y-111625000D01*
G75*
G02*
X168625000Y-111425000I0J200000D01*
G01*
X168625000Y-110875000D01*
G75*
G02*
X168825000Y-110675000I200000J0D01*
G01*
X169225000Y-110675000D01*
G75*
G02*
X169425000Y-110875000I0J-200000D01*
G01*
G37*
G36*
G01*
X167800000Y-105595000D02*
X167800000Y-105295000D01*
G75*
G02*
X167950000Y-105145000I150000J0D01*
G01*
X169600000Y-105145000D01*
G75*
G02*
X169750000Y-105295000I0J-150000D01*
G01*
X169750000Y-105595000D01*
G75*
G02*
X169600000Y-105745000I-150000J0D01*
G01*
X167950000Y-105745000D01*
G75*
G02*
X167800000Y-105595000I0J150000D01*
G01*
G37*
G36*
G01*
X167800000Y-106865000D02*
X167800000Y-106565000D01*
G75*
G02*
X167950000Y-106415000I150000J0D01*
G01*
X169600000Y-106415000D01*
G75*
G02*
X169750000Y-106565000I0J-150000D01*
G01*
X169750000Y-106865000D01*
G75*
G02*
X169600000Y-107015000I-150000J0D01*
G01*
X167950000Y-107015000D01*
G75*
G02*
X167800000Y-106865000I0J150000D01*
G01*
G37*
G36*
G01*
X167800000Y-108135000D02*
X167800000Y-107835000D01*
G75*
G02*
X167950000Y-107685000I150000J0D01*
G01*
X169600000Y-107685000D01*
G75*
G02*
X169750000Y-107835000I0J-150000D01*
G01*
X169750000Y-108135000D01*
G75*
G02*
X169600000Y-108285000I-150000J0D01*
G01*
X167950000Y-108285000D01*
G75*
G02*
X167800000Y-108135000I0J150000D01*
G01*
G37*
G36*
G01*
X167800000Y-109405000D02*
X167800000Y-109105000D01*
G75*
G02*
X167950000Y-108955000I150000J0D01*
G01*
X169600000Y-108955000D01*
G75*
G02*
X169750000Y-109105000I0J-150000D01*
G01*
X169750000Y-109405000D01*
G75*
G02*
X169600000Y-109555000I-150000J0D01*
G01*
X167950000Y-109555000D01*
G75*
G02*
X167800000Y-109405000I0J150000D01*
G01*
G37*
G36*
G01*
X172750000Y-109405000D02*
X172750000Y-109105000D01*
G75*
G02*
X172900000Y-108955000I150000J0D01*
G01*
X174550000Y-108955000D01*
G75*
G02*
X174700000Y-109105000I0J-150000D01*
G01*
X174700000Y-109405000D01*
G75*
G02*
X174550000Y-109555000I-150000J0D01*
G01*
X172900000Y-109555000D01*
G75*
G02*
X172750000Y-109405000I0J150000D01*
G01*
G37*
G36*
G01*
X172750000Y-108135000D02*
X172750000Y-107835000D01*
G75*
G02*
X172900000Y-107685000I150000J0D01*
G01*
X174550000Y-107685000D01*
G75*
G02*
X174700000Y-107835000I0J-150000D01*
G01*
X174700000Y-108135000D01*
G75*
G02*
X174550000Y-108285000I-150000J0D01*
G01*
X172900000Y-108285000D01*
G75*
G02*
X172750000Y-108135000I0J150000D01*
G01*
G37*
G36*
G01*
X172750000Y-106865000D02*
X172750000Y-106565000D01*
G75*
G02*
X172900000Y-106415000I150000J0D01*
G01*
X174550000Y-106415000D01*
G75*
G02*
X174700000Y-106565000I0J-150000D01*
G01*
X174700000Y-106865000D01*
G75*
G02*
X174550000Y-107015000I-150000J0D01*
G01*
X172900000Y-107015000D01*
G75*
G02*
X172750000Y-106865000I0J150000D01*
G01*
G37*
G36*
G01*
X172750000Y-105595000D02*
X172750000Y-105295000D01*
G75*
G02*
X172900000Y-105145000I150000J0D01*
G01*
X174550000Y-105145000D01*
G75*
G02*
X174700000Y-105295000I0J-150000D01*
G01*
X174700000Y-105595000D01*
G75*
G02*
X174550000Y-105745000I-150000J0D01*
G01*
X172900000Y-105745000D01*
G75*
G02*
X172750000Y-105595000I0J150000D01*
G01*
G37*
M02*
